<svg width="22" height="22" viewBox="0 0 22 22" fill="none" xmlns="http://www.w3.org/2000/svg">
<path id="Vector" fill-rule="evenodd" clip-rule="evenodd" d="M2.21588 5.56172C2.23528 6.54339 1.7011 7.87038 1.00653 8.56362C0.362027 9.20872 0 10.0833 0 10.9951C0 11.907 0.362027 12.7816 1.00653 13.4267C1.69204 14.1096 2.19648 15.2943 2.21588 16.2617C2.23399 17.1179 2.56898 17.969 3.22216 18.6208C3.82479 19.2247 4.63094 19.5821 5.48306 19.6232C6.50616 19.6749 7.84615 20.2699 8.57046 20.9942C9.21553 21.6382 10.0899 22 11.0014 22C11.913 22 12.7874 21.6382 13.4324 20.9942C14.1568 20.2699 15.4967 19.6749 16.5198 19.6232C17.372 19.5821 18.1781 19.2247 18.7807 18.6208C19.409 17.9935 19.7693 17.1468 19.7857 16.2591C19.8051 15.2943 20.3031 14.1173 20.9873 13.4344C21.6343 12.7896 21.9985 11.9141 22 11.0006C22.0015 10.0872 21.64 9.21057 20.9951 8.56362C20.3018 7.87167 19.7663 6.54339 19.787 5.56301C19.7968 5.10014 19.7126 4.64009 19.5397 4.21062C19.3667 3.78116 19.1085 3.39118 18.7807 3.06423C18.441 2.72361 18.0333 2.45832 17.5843 2.28563C17.1353 2.11293 16.6549 2.03669 16.1745 2.06187C15.251 2.10843 14.0856 1.66093 13.4324 1.00649C12.7873 0.362011 11.9127 0 11.0008 0C10.0889 0 9.21429 0.362011 8.56917 1.00649C7.91728 1.65964 6.75062 2.10843 5.82712 2.06187C5.34689 2.03688 4.86678 2.11321 4.41798 2.2859C3.96919 2.45859 3.56175 2.72378 3.22216 3.06423C2.89451 3.39103 2.63643 3.7808 2.46349 4.21003C2.29054 4.63926 2.20632 5.09906 2.21588 5.56172ZM14.9276 6.63004C15.0762 6.71247 15.2071 6.82337 15.3128 6.95639C15.4185 7.08941 15.4969 7.24195 15.5436 7.4053C15.5904 7.56864 15.6044 7.7396 15.5851 7.90839C15.5657 8.07718 15.5133 8.2405 15.4308 8.38902L11.8506 14.8326C11.7578 15.0081 11.626 15.1598 11.4651 15.2762C11.2314 15.4453 10.9479 15.5314 10.6597 15.5208C10.3714 15.5103 10.0949 15.4037 9.87423 15.218L6.30568 12.3635C6.17302 12.2574 6.06258 12.1261 5.98064 11.9773C5.89871 11.8285 5.8469 11.6649 5.82816 11.4961C5.80942 11.3272 5.82413 11.1563 5.87144 10.9931C5.91876 10.83 5.99775 10.6777 6.10391 10.5451C6.21007 10.4124 6.34131 10.302 6.49016 10.22C6.639 10.1381 6.80253 10.0863 6.97139 10.0676C7.14026 10.0488 7.31117 10.0635 7.47435 10.1108C7.63753 10.1582 7.7898 10.2371 7.92246 10.3433L10.3192 12.2614L13.1686 7.13187C13.2511 6.98342 13.3621 6.85268 13.4952 6.74712C13.6283 6.64155 13.7808 6.56324 13.9442 6.51664C14.1075 6.47004 14.2784 6.45607 14.4472 6.47553C14.6159 6.49498 14.7792 6.54749 14.9276 6.63004Z" fill="#93151F"/>
</svg>
