<svg width="22" height="21" viewBox="0 0 22 21" fill="none" xmlns="http://www.w3.org/2000/svg">
<path d="M4.79102 20.2461C4.61523 20.1159 4.50781 19.9401 4.46875 19.7188C4.4362 19.5039 4.46875 19.2402 4.56641 18.9277L6.51953 13.1074L1.53906 9.5332C1.27214 9.33789 1.08659 9.14258 0.982422 8.94727C0.878255 8.74544 0.861979 8.54036 0.933594 8.33203C0.998698 8.13021 1.12891 7.98047 1.32422 7.88281C1.52604 7.77865 1.79297 7.72656 2.125 7.72656H8.24805L10.1035 1.91602C10.2077 1.60352 10.3379 1.36914 10.4941 1.21289C10.6504 1.05013 10.8359 0.96875 11.0508 0.96875C11.2786 0.96875 11.4707 1.05013 11.627 1.21289C11.7832 1.36914 11.9134 1.60352 12.0176 1.91602L13.873 7.72656H19.9961C20.3216 7.72656 20.5853 7.77865 20.7871 7.88281C20.9889 7.98047 21.1224 8.13021 21.1875 8.33203C21.2591 8.54036 21.2428 8.74544 21.1387 8.94727C21.0345 9.14258 20.849 9.33789 20.582 9.5332L15.6016 13.1074L17.5449 18.9277C17.6491 19.2402 17.6816 19.5039 17.6426 19.7188C17.61 19.9401 17.5059 20.1159 17.3301 20.2461C17.1543 20.3828 16.9557 20.4316 16.7344 20.3926C16.513 20.3535 16.2689 20.2363 16.002 20.041L11.0508 16.4082L6.11914 20.041C5.85221 20.2363 5.60807 20.3535 5.38672 20.3926C5.16536 20.4316 4.9668 20.3828 4.79102 20.2461Z" fill="#392516"/>
</svg>
