<svg width="24" height="25" viewBox="0 0 24 25" fill="none" xmlns="http://www.w3.org/2000/svg">
<g id="check_box_outline_blank">
<path id="icon" d="M5 21.8984C4.45 21.8984 3.97917 21.7026 3.5875 21.3109C3.19583 20.9193 3 20.4484 3 19.8984V5.89844C3 5.34844 3.19583 4.8776 3.5875 4.48594C3.97917 4.09427 4.45 3.89844 5 3.89844H19C19.55 3.89844 20.0208 4.09427 20.4125 4.48594C20.8042 4.8776 21 5.34844 21 5.89844V19.8984C21 20.4484 20.8042 20.9193 20.4125 21.3109C20.0208 21.7026 19.55 21.8984 19 21.8984H5ZM5 19.8984H19V5.89844H5V19.8984Z" fill="#93151F"/>
</g>
</svg>
