<svg width="16" height="16" viewBox="0 0 16 16" fill="none" xmlns="http://www.w3.org/2000/svg">
<g id="Orders">
<path id="Vector" d="M8 0C10.1217 0 12.1566 0.842855 13.6569 2.34315C15.1571 3.84344 16 5.87827 16 8C16 10.1217 15.1571 12.1566 13.6569 13.6569C12.1566 15.1571 10.1217 16 8 16C5.87827 16 3.84344 15.1571 2.34315 13.6569C0.842855 12.1566 0 10.1217 0 8C0 5.87827 0.842855 3.84344 2.34315 2.34315C3.84344 0.842855 5.87827 0 8 0ZM8.424 3.41943C7.49371 3.41943 6.76457 3.68343 6.224 4.21143C5.67086 4.73943 5.40686 5.46857 5.40686 6.39886H6.84C6.84 5.87086 6.94057 5.456 7.15429 5.16686C7.39314 4.81486 7.78286 4.65143 8.336 4.65143C8.76343 4.65143 9.10286 4.76457 9.34171 5.00343C9.568 5.24229 9.69372 5.56914 9.69372 5.984C9.69372 6.29829 9.58057 6.6 9.35429 6.87657L9.20343 7.05257C8.38629 7.78171 7.896 8.30971 7.73257 8.64914C7.55657 8.98857 7.48114 9.40343 7.48114 9.88114V10.0571H8.92686V9.88114C8.92686 9.57943 8.98971 9.31543 9.11543 9.064C9.22857 8.83771 9.392 8.624 9.61829 8.43543C10.2217 7.90743 10.5863 7.568 10.6994 7.44229C11.0011 7.04 11.1646 6.52457 11.1646 5.896C11.1646 5.12914 10.9131 4.52571 10.4103 4.08571C9.90743 3.63314 9.24114 3.41943 8.424 3.41943ZM8.19771 10.6731C7.94139 10.6662 7.69276 10.7611 7.50629 10.9371C7.41422 11.0239 7.34187 11.1294 7.29415 11.2465C7.24643 11.3636 7.22445 11.4896 7.22971 11.616C7.22971 11.8926 7.31771 12.1189 7.50629 12.2949C7.69136 12.4745 7.93981 12.5739 8.19771 12.5714C8.47429 12.5714 8.70057 12.4834 8.88914 12.3074C8.98316 12.2189 9.0575 12.1116 9.10731 11.9925C9.15713 11.8734 9.18131 11.7451 9.17829 11.616C9.1807 11.49 9.15742 11.3648 9.10987 11.2481C9.06232 11.1314 8.99149 11.0256 8.90171 10.9371C8.71038 10.7608 8.45781 10.6661 8.19771 10.6731Z" fill="black"/>
</g>
</svg>
