<svg width="25" height="25" viewBox="0 0 25 25" fill="none" xmlns="http://www.w3.org/2000/svg">
<path id="Vector" d="M20.145 23.5371C18.5943 24.8036 16.9012 24.6036 15.2713 24.0037C13.5465 23.3904 11.9642 23.3638 10.1444 24.0037C7.8658 24.8303 6.6632 24.5903 5.30236 23.5371C-2.41963 16.8313 -1.28032 6.61923 7.48603 6.24594C9.62224 6.33926 11.1097 7.23248 12.3597 7.31247C14.2269 6.99251 16.015 6.07263 18.0088 6.19261C20.3982 6.35259 22.2021 7.15249 23.3889 8.59231C18.4519 11.0853 19.6228 16.5646 24.1484 18.0978C23.2465 20.0975 22.0755 22.0839 20.1292 23.5504L20.145 23.5371ZM12.2015 6.16595C11.9642 3.19299 14.8283 0.73997 18.1196 0.5C18.5785 3.93957 14.4168 6.49924 12.2015 6.16595Z" fill="black"/>
</svg>
