<svg width="40" height="40" viewBox="0 0 40 40" fill="none" xmlns="http://www.w3.org/2000/svg">
<path d="M16.2588 26.3994C15.557 26.3994 15.0163 26.2025 14.6367 25.8086C14.2572 25.4076 14.0173 24.8597 13.917 24.165L12.2627 12.8428H8.75C8.57096 12.8428 8.41341 12.7747 8.27734 12.6387C8.14128 12.5026 8.07324 12.3379 8.07324 12.1445C8.07324 11.9583 8.14128 11.7972 8.27734 11.6611C8.41341 11.5179 8.57096 11.4463 8.75 11.4463H12.3701C12.8499 11.4463 13.1722 11.5394 13.3369 11.7256C13.5088 11.9046 13.6198 12.1696 13.6699 12.5205L15.3564 23.9717C15.4137 24.2939 15.5319 24.5482 15.7109 24.7344C15.8971 24.9206 16.137 25.0137 16.4307 25.0137H28.1826C28.3617 25.0137 28.5156 25.0817 28.6445 25.2178C28.7806 25.3538 28.8486 25.5186 28.8486 25.7119C28.8486 25.9124 28.7806 26.0771 28.6445 26.2061C28.5156 26.335 28.3617 26.3994 28.1826 26.3994H16.2588ZM14.4219 22.8008L14.3896 21.415H28.043C28.3509 21.415 28.5872 21.3219 28.752 21.1357C28.9238 20.9424 29.0348 20.6882 29.085 20.373L29.8262 15.3242H13.5088L13.4766 13.9385H30.5137C30.7858 13.9385 31.0007 14.0101 31.1582 14.1533C31.3158 14.2965 31.3945 14.4827 31.3945 14.7119C31.3945 14.7549 31.391 14.8158 31.3838 14.8945C31.3766 14.9661 31.3659 15.0306 31.3516 15.0879L30.5352 20.5234C30.4277 21.2253 30.1842 21.7803 29.8047 22.1885C29.4323 22.5967 28.8844 22.8008 28.1611 22.8008H14.4219ZM17.1611 31.3193C16.71 31.3193 16.3268 31.1618 16.0117 30.8467C15.6966 30.5387 15.5391 30.1592 15.5391 29.708C15.5391 29.2568 15.6966 28.8737 16.0117 28.5586C16.3268 28.2435 16.71 28.0859 17.1611 28.0859C17.6123 28.0859 17.9954 28.2435 18.3105 28.5586C18.6257 28.8737 18.7832 29.2568 18.7832 29.708C18.7832 30.1592 18.6257 30.5387 18.3105 30.8467C17.9954 31.1618 17.6123 31.3193 17.1611 31.3193ZM26.6035 31.3193C26.1523 31.3193 25.7656 31.1618 25.4434 30.8467C25.1211 30.5387 24.96 30.1592 24.96 29.708C24.96 29.2568 25.1211 28.8737 25.4434 28.5586C25.7656 28.2435 26.1523 28.0859 26.6035 28.0859C27.0547 28.0859 27.4342 28.2435 27.7422 28.5586C28.0573 28.8737 28.2148 29.2568 28.2148 29.708C28.2148 30.1592 28.0573 30.5387 27.7422 30.8467C27.4342 31.1618 27.0547 31.3193 26.6035 31.3193Z" fill="#FFF8EF"/>
</svg>
