<svg width="40" height="40" viewBox="0 0 40 40" fill="none" xmlns="http://www.w3.org/2000/svg">
<path d="M9.58887 17.7949C9.58887 16.9069 9.7321 16.0941 10.0186 15.3564C10.305 14.6188 10.7025 13.9779 11.2109 13.4336C11.7266 12.8893 12.3317 12.4704 13.0264 12.1768C13.721 11.8831 14.473 11.7363 15.2822 11.7363C16.2132 11.7363 17.0547 11.9476 17.8066 12.3701C18.5586 12.7926 19.1566 13.3548 19.6006 14.0566C20.0518 13.3548 20.6497 12.7926 21.3945 12.3701C22.1465 11.9476 22.988 11.7363 23.9189 11.7363C24.7354 11.7363 25.4873 11.8831 26.1748 12.1768C26.8623 12.4704 27.4639 12.8893 27.9795 13.4336C28.5023 13.9779 28.9033 14.6188 29.1826 15.3564C29.4691 16.0941 29.6123 16.9069 29.6123 17.7949C29.6123 19.2272 29.2292 20.6416 28.4629 22.0381C27.6966 23.4346 26.6152 24.7988 25.2188 26.1309C23.8223 27.4557 22.1787 28.7233 20.2881 29.9336C20.1878 30.0052 20.0697 30.0661 19.9336 30.1162C19.8047 30.1663 19.6937 30.1914 19.6006 30.1914C19.5003 30.1914 19.3857 30.1663 19.2568 30.1162C19.1279 30.0661 19.0133 30.0052 18.9131 29.9336C17.0225 28.7233 15.3789 27.4557 13.9824 26.1309C12.5859 24.7988 11.5046 23.4346 10.7383 22.0381C9.97201 20.6416 9.58887 19.2272 9.58887 17.7949ZM11.082 17.7949C11.082 18.7402 11.3076 19.6963 11.7588 20.6631C12.21 21.6227 12.8258 22.568 13.6064 23.499C14.3942 24.4229 15.2858 25.3109 16.2812 26.1631C17.2767 27.0153 18.3151 27.8031 19.3965 28.5264C19.5039 28.598 19.5719 28.6338 19.6006 28.6338C19.6221 28.6338 19.6865 28.598 19.7939 28.5264C20.8825 27.8031 21.9245 27.0153 22.9199 26.1631C23.9225 25.3109 24.8141 24.4229 25.5947 23.499C26.3753 22.568 26.9912 21.6227 27.4424 20.6631C27.9007 19.6963 28.1299 18.7402 28.1299 17.7949C28.1299 16.8783 27.9473 16.0798 27.582 15.3994C27.2168 14.7119 26.7155 14.1784 26.0781 13.7988C25.4479 13.4121 24.7318 13.2188 23.9297 13.2188C23.2995 13.2188 22.7516 13.3333 22.2861 13.5625C21.8206 13.7917 21.4196 14.0817 21.083 14.4326C20.7536 14.7764 20.4743 15.1237 20.2451 15.4746C20.1019 15.6608 19.9873 15.7897 19.9014 15.8613C19.8154 15.9258 19.7152 15.958 19.6006 15.958C19.486 15.958 19.3822 15.9258 19.2891 15.8613C19.196 15.7897 19.085 15.6608 18.9561 15.4746C18.734 15.1165 18.4548 14.7656 18.1182 14.4219C17.7887 14.071 17.3877 13.7845 16.915 13.5625C16.4495 13.3333 15.8981 13.2188 15.2607 13.2188C14.4587 13.2188 13.7425 13.4121 13.1123 13.7988C12.4821 14.1784 11.9844 14.7119 11.6191 15.3994C11.2611 16.0798 11.082 16.8783 11.082 17.7949Z" fill="#FFF8EF"/>
</svg>
