<svg width="25" height="25" viewBox="0 0 25 25" fill="none" xmlns="http://www.w3.org/2000/svg">
<g id="devicon:google">
<path id="Vector" d="M9.00948 1.28992C6.61151 2.1218 4.5435 3.70073 3.10921 5.7948C1.67493 7.88887 0.949963 10.3877 1.04081 12.9242C1.13165 15.4608 2.03352 17.9013 3.61394 19.8874C5.19435 21.8735 7.37001 23.3005 9.82135 23.9587C11.8087 24.4715 13.8909 24.494 15.8889 24.0243C17.6988 23.6177 19.3722 22.7481 20.7451 21.5005C22.174 20.1624 23.2112 18.4602 23.7451 16.5768C24.3255 14.5287 24.4287 12.3748 24.047 10.2805H12.887V14.9099H19.3501C19.2209 15.6483 18.9441 16.353 18.5363 16.9819C18.1284 17.6107 17.5978 18.1509 16.9764 18.5699C16.1871 19.092 15.2975 19.4432 14.3645 19.6012C13.4287 19.7752 12.469 19.7752 11.5332 19.6012C10.5848 19.4051 9.68766 19.0137 8.89885 18.4518C7.63163 17.5548 6.68012 16.2804 6.1801 14.8105C5.67163 13.3132 5.67163 11.6898 6.1801 10.1924C6.53603 9.14283 7.12442 8.18717 7.90135 7.3968C8.79046 6.4757 9.9161 5.81729 11.1548 5.49381C12.3934 5.17034 13.6973 5.19429 14.9232 5.56305C15.8809 5.85703 16.7567 6.37068 17.4807 7.06305C18.2095 6.33805 18.937 5.61117 19.6632 4.88242C20.0382 4.49055 20.447 4.11742 20.8164 3.71617C19.7112 2.68769 18.4139 1.8874 16.9989 1.36117C14.422 0.425527 11.6026 0.400382 9.00948 1.28992Z" fill="white"/>
<path id="Vector_2" d="M9.00914 1.29083C11.602 0.400689 14.4215 0.425171 16.9985 1.36021C18.4138 1.89001 19.7105 2.69415 20.8141 3.72646C20.4391 4.12771 20.0435 4.50271 19.661 4.89271C18.9335 5.61896 18.2066 6.34271 17.4804 7.06396C16.7564 6.37159 15.8806 5.85794 14.9229 5.56396C13.6973 5.19391 12.3935 5.16857 11.1546 5.49072C9.91555 5.81288 8.78923 6.47007 7.89914 7.39021C7.1222 8.18059 6.53381 9.13624 6.17789 10.1858L2.29102 7.17646C3.68228 4.41751 6.09117 2.30713 9.00914 1.29083Z" fill="#E33629"/>
<path id="Vector_3" d="M1.25984 10.157C1.46875 9.12164 1.8156 8.11896 2.29109 7.17578L6.17796 10.1927C5.66949 11.69 5.66949 13.3134 6.17796 14.8108C4.88296 15.8108 3.58734 16.8158 2.29109 17.8258C1.10075 15.4564 0.737712 12.7567 1.25984 10.157Z" fill="#F8BD00"/>
<path id="Vector_4" d="M12.8866 10.2773H24.0466C24.4283 12.3716 24.3251 14.5255 23.7447 16.5736C23.2108 18.457 22.1736 20.1592 20.7447 21.4973C19.4903 20.5186 18.2303 19.5473 16.976 18.5686C17.5978 18.1491 18.1286 17.6084 18.5365 16.9788C18.9444 16.3493 19.221 15.6439 19.3497 14.9048H12.8866C12.8847 13.3636 12.8866 11.8205 12.8866 10.2773Z" fill="#587DBD"/>
<path id="Vector_5" d="M2.28906 17.8236C3.58531 16.8236 4.88094 15.8186 6.17594 14.8086C6.67695 16.279 7.62982 17.5534 8.89844 18.4498C9.6897 19.0091 10.5888 19.3973 11.5384 19.5898C12.4742 19.7638 13.434 19.7638 14.3697 19.5898C15.3027 19.4319 16.1923 19.0806 16.9816 18.5586C18.2359 19.5373 19.4959 20.5086 20.7503 21.4873C19.3776 22.7356 17.7042 23.6059 15.8941 24.013C13.8961 24.4827 11.8139 24.4601 9.82656 23.9473C8.25475 23.5277 6.78658 22.7878 5.51406 21.7742C4.16718 20.7049 3.0671 19.3573 2.28906 17.8236Z" fill="#319F43"/>
</g>
</svg>
