<svg width="263" height="464" viewBox="0 0 263 464" fill="none" xmlns="http://www.w3.org/2000/svg">
<path d="M219.004 4.47147C186.496 0.544272 170.242 -1.42158 160.161 4.62692C146.034 13.1005 154.191 23.9496 139.494 43.5416C121.188 67.9397 97.4545 65.8921 87.4301 87.3479C82.7366 97.4033 83.4495 107.479 85.0795 114.891C72.8392 136.45 61.5598 158.424 51.2868 180.772C44.8909 194.676 38.6831 208.716 32.9142 222.893C33.3712 218.649 33.6329 214.85 33.7781 211.526C33.7781 211.526 33.5134 189.473 39.0971 164.794C45.5792 136.144 54.1631 134.692 51.1135 122.056C47.8206 108.421 32.3012 100.901 14.5527 80.3977C6.73035 71.3604 0.881361 64.6048 -1.20402 57.1815C-1.52633 56.0291 -2.5114 52.1814 -3.54254 52.2317C-4.50706 52.2784 -5.21147 55.7357 -5.32206 57.8473C-6.50152 79.3317 -7.09244 90.0689 -4.92099 98.6852C0.502216 120.208 7.66849 118.874 9.19808 132.434C11.3523 151.499 -1.24382 161.3 -6.14829 176.049C-11.1831 191.192 -9.19556 214.642 22.2464 250.919C21.0732 254.265 19.9319 257.614 18.8364 260.974C11.7135 282.75 6.63083 304.84 3.96186 327.328C2.85039 320.71 0.71903 316.374 -1.72961 313.444C-2.89947 312.042 -8.5633 304.568 -16.6504 294.243C-18.8481 291.44 -21.2463 287.948 -23.9497 283.138C-39.1819 256.031 -30.2397 247.257 -43.8576 235.105C-51.1397 228.609 -56.9008 228.263 -69.4117 223.033C-73.43 221.353 -80.1777 218.516 -87.9717 213.833C-98.9565 207.227 -105.779 200.709 -107.125 201.727C-107.806 202.242 -106.587 204.311 -105.871 205.75C-101.232 215.037 -104.282 224.338 -104.77 228.811C-106.532 244.975 -84.554 250.757 -70.8456 276.099C-56.9854 301.733 -67.1583 312.909 -50.9583 327.298C-39.6512 337.343 -30.4504 340.791 -22.2725 345.81C-15.3065 350.089 -6.96048 357.634 -0.824025 371.942C-1.86393 377.965 -3.2205 383.951 -5.17106 389.878C-12.6146 412.495 -25.7294 433.876 -42.1954 452.349C-43.6259 453.95 -45.0829 455.531 -46.5576 457.098C-49.8489 460.584 -44.2161 465.658 -40.9014 462.148C-23.7254 443.963 -9.95925 423.388 -0.855344 401.077C2.54071 392.761 4.84503 384.316 6.50754 375.772C40.3742 369.728 56.2955 357.751 64.5639 347.596C72.9032 337.352 75.4261 326.566 91.2068 315.323C103.282 306.716 108.253 308.443 116.617 300.207C128.829 288.177 130.988 271.909 132.032 264.073C134.088 248.65 130.881 236.01 140.856 228.223C143.052 226.513 144.787 225.853 144.586 225.434C143.669 223.523 103.001 228.493 76.8068 251.632C60.6836 265.877 68.0228 271.123 46.8926 295.214C30.4483 313.958 20.2431 317.352 11.6965 329.883C12.1572 325.447 12.6818 321.015 13.3597 316.601C15.457 302.896 18.6416 289.351 22.5387 275.961C24.4845 269.275 26.6226 262.639 28.9033 256.037C38.569 251.811 52.739 244.708 67.5496 233.332C86.7344 218.59 85.3326 213.308 99.496 204.804C126.849 188.377 144.173 200.807 160.404 185.54C171.248 175.339 163.746 169.567 180.556 143.531C190.055 128.813 194.476 129.203 197.39 119.45C200.205 110.041 199.668 99.0271 208.773 92.8295C210.804 91.4475 212.762 90.6806 212.582 90.3003C212.103 89.2699 196.722 92.37 182.712 100.186C181.514 100.858 179.279 102.143 169.795 109.173C149.516 124.21 146.366 128.237 136.535 134.162C126.301 140.333 124.458 139.135 112.29 145.148C83.3444 159.441 66.4335 179.706 59.4093 188.297C56.7443 191.556 54.3832 194.713 52.2823 197.714C52.6836 196.805 53.076 195.889 53.4772 194.981C64.2683 170.492 76.3016 146.429 89.5012 122.877C90.8073 120.552 92.1236 118.228 93.4487 115.912C93.5625 115.717 93.6327 115.521 93.703 115.326C98.8774 113.284 105.139 110.862 112.251 108.213C161.94 89.6708 174.112 89.3 184.968 76.8283C197.18 62.8007 186.49 57.8523 200.169 42.2658C210.958 29.9763 232.939 15.5783 255.801 14.0129C258.495 13.8302 262.707 13.7175 262.812 12.922C263.062 10.9447 237.892 6.75687 219.008 4.47717L219.004 4.47147Z" fill="#392516" fill-opacity="0.17"/>
</svg>
