<svg width="310" height="485" viewBox="0 0 310 485" fill="none" xmlns="http://www.w3.org/2000/svg">
<path d="M384.434 149.02C377.397 151.407 370.123 153.87 364.07 158.56C357.74 163.469 353.988 169.854 350.351 176.028C347.449 180.971 344.699 185.636 340.814 189.322C333.644 196.129 321.94 199.098 311.696 196.964C311.772 196.002 311.868 195.032 311.868 194.054C311.868 183.012 306.808 173 298.636 165.712C301.929 161.419 304.545 156.78 306.416 151.921C306.502 151.812 306.607 151.71 306.684 151.592C318.398 133.491 338.198 120.054 361.025 114.732C362.6 114.361 364.194 114.032 365.788 113.703C370.228 112.775 374.82 111.822 379.278 110.084C393.245 104.644 401.513 93.5853 409.504 82.8814C411.528 80.1738 413.513 77.5168 415.547 74.9863C414.669 82.0632 414.85 89.2835 415.031 96.3773C415.089 98.7981 415.155 101.202 415.165 103.598C415.289 122.5 410.573 135.018 400.73 141.867C396.167 145.047 390.467 146.97 384.443 149.02H384.434Z" fill="#392516" fill-opacity="0.17"/>
<path d="M266.272 162.836C285.748 162.836 301.596 176.838 301.596 194.045C301.596 211.252 285.748 225.254 266.272 225.254C246.797 225.254 230.949 211.252 230.949 194.045C230.949 176.838 246.797 162.836 266.272 162.836Z" fill="#392516" fill-opacity="0.17"/>
<path d="M289.586 94.1422C289.758 100.561 292.23 106.348 294.608 111.94C295.677 114.445 296.689 116.815 297.481 119.211C301.997 132.74 299.286 148.185 290.541 159.994C283.504 156.063 275.199 153.752 266.272 153.752C263.819 153.752 261.432 153.971 259.093 154.3C259.408 146.127 257.27 138.021 253.203 130.75C253.289 130.539 253.374 130.32 253.432 130.092C255.704 119.97 253.117 110.084 250.625 100.527C250.071 98.4187 249.527 96.3185 249.031 94.2266C245.918 80.9585 247.274 71.1318 253.069 65.0249C255.036 62.9583 257.604 61.2038 260.315 59.3397C261.986 58.1926 263.656 57.0454 265.241 55.8139C282.445 42.3855 286.665 21.9139 289.003 0C290.703 3.6945 293.061 7.49865 296.059 11.3281C297.347 12.9729 298.703 14.6177 300.059 16.2625C306.407 23.9721 312.412 31.2599 312.899 39.5683C313.405 48.1466 307.878 56.126 302.035 64.5694C295.763 73.6285 289.271 83.0081 289.576 94.1338L289.586 94.1422Z" fill="#392516" fill-opacity="0.17"/>
<path d="M264.219 234.256C264.907 234.281 265.584 234.348 266.272 234.348C270.224 234.348 274.043 233.859 277.699 233.016C295.648 322.848 335.029 407.517 394.926 485.001C387.737 482.116 379.947 479.67 371.507 477.603C371.393 477.359 371.269 477.114 371.106 476.878C319.248 402.161 283.332 320.655 264.343 234.627C264.315 234.5 264.257 234.382 264.219 234.256Z" fill="#392516" fill-opacity="0.17"/>
<path d="M248.63 156.57C248.621 156.679 248.63 156.789 248.63 156.89C237.432 161.057 228.534 169.07 223.98 179.032C223.092 178.146 222.157 177.277 221.116 176.425C214.281 170.833 203.225 165.823 193.602 166.793C193.43 166.7 193.277 166.599 193.086 166.523C184.58 162.989 181.63 154.393 178.212 144.432C175.253 135.803 172.188 126.879 164.894 120.266C159.376 115.255 152.426 112.531 145.705 109.891C140.607 107.892 135.795 106.002 131.862 103.244C117.36 93.0967 116.845 73.3 118.01 57.1892L118.057 56.4638C118.821 45.9033 119.642 34.533 117.532 23.9219C123.194 26.6126 129.38 28.7213 135.48 30.8048C147.194 34.8029 158.259 38.5818 165.286 45.9539C171.711 52.6934 174.184 61.8875 176.809 71.613C180.036 83.6074 183.377 96.0068 194.728 104.265C200.485 108.457 207.225 110.675 213.746 112.826C217.402 114.032 220.858 115.171 224.076 116.622C240.181 123.876 250.501 140.67 248.63 156.561V156.57Z" fill="#392516" fill-opacity="0.17"/>
<path d="M156.788 185.696C164.177 184.937 170.956 182.634 177.524 180.407C183.281 178.45 188.723 176.603 194.336 175.827C199.73 175.068 208.055 178.138 214.127 183.106C218.499 186.683 220.943 190.639 220.666 193.7C220.666 193.726 220.666 193.743 220.666 193.768C220.666 193.869 220.647 193.962 220.647 194.063C220.647 204.075 224.829 213.219 231.684 220.279C223.941 227.676 218.7 232.164 210.738 231.278C205.372 230.688 200.484 227.634 195.31 224.404C190.374 221.325 185.276 218.136 179.071 216.551C165.466 213.092 153.151 218.423 141.236 223.577C133.331 227.002 125.866 230.232 118.19 231C101.846 232.636 86.819 222.27 79.3056 215.943C74.6276 212.004 70.1692 207.593 65.8635 203.325C59.5435 197.058 52.9943 190.571 45.3186 185.105C36.6405 178.931 27.2654 174.941 18.1099 173.338C37.3756 164.018 56.4885 157.776 75.9164 161.116C86.7999 162.98 97.416 168.008 107.688 172.858C122.964 180.078 138.754 187.56 156.75 185.696H156.788Z" fill="#392516" fill-opacity="0.17"/>
<path d="M16.8883 296.158C60.804 301.573 106.219 307.174 148.865 319.219C180.417 328.135 255.58 352.984 272.077 391.186C273.146 393.674 273.795 395.935 274.11 398.027C216.848 372.562 159.729 350.032 98.352 328.675C95.7075 327.756 92.7193 328.903 91.6882 331.239C90.6476 333.576 91.946 336.216 94.5905 337.127C156.664 358.72 214.347 381.503 272.268 407.356C271.657 408.233 270.96 409.068 270.072 409.827C251.398 425.71 181.945 415.099 163.08 408.005C123.317 393.042 90.619 366.801 58.9996 341.42L-0.000183105 294.066C5.62296 294.775 11.2556 295.467 16.8883 296.158Z" fill="#392516" fill-opacity="0.17"/>
</svg>
