<svg width="33" height="32" viewBox="0 0 33 32" fill="none" xmlns="http://www.w3.org/2000/svg">
<g id="heroicons-solid:light-bulb">
<path id="Vector" d="M18.1002 4.79922C18.1002 4.37487 17.9316 3.96791 17.6316 3.66785C17.3315 3.36779 16.9245 3.19922 16.5002 3.19922C16.0758 3.19922 15.6689 3.36779 15.3688 3.66785C15.0688 3.96791 14.9002 4.37487 14.9002 4.79922V6.39922C14.9002 6.82357 15.0688 7.23053 15.3688 7.53059C15.6689 7.83065 16.0758 7.99922 16.5002 7.99922C16.9245 7.99922 17.3315 7.83065 17.6316 7.53059C17.9316 7.23053 18.1002 6.82357 18.1002 6.39922V4.79922ZM25.5514 9.21042C25.8428 8.90866 26.0041 8.50449 26.0005 8.08498C25.9968 7.66546 25.8286 7.26416 25.5319 6.96751C25.2353 6.67086 24.834 6.50259 24.4144 6.49894C23.9949 6.49529 23.5908 6.65657 23.289 6.94802L22.1578 8.07922C21.8663 8.38098 21.7051 8.78515 21.7087 9.20466C21.7124 9.62418 21.8806 10.0255 22.1773 10.3221C22.4739 10.6188 22.8752 10.7871 23.2948 10.7907C23.7143 10.7943 24.1184 10.6331 24.4202 10.3416L25.5514 9.21042ZM29.3002 15.9992C29.3002 16.4236 29.1316 16.8305 28.8316 17.1306C28.5315 17.4306 28.1245 17.5992 27.7002 17.5992H26.1002C25.6758 17.5992 25.2689 17.4306 24.9688 17.1306C24.6688 16.8305 24.5002 16.4236 24.5002 15.9992C24.5002 15.5749 24.6688 15.1679 24.9688 14.8678C25.2689 14.5678 25.6758 14.3992 26.1002 14.3992H27.7002C28.1245 14.3992 28.5315 14.5678 28.8316 14.8678C29.1316 15.1679 29.3002 15.5749 29.3002 15.9992ZM8.5802 10.3416C8.72779 10.4944 8.90434 10.6163 9.09955 10.7002C9.29475 10.784 9.50471 10.8282 9.71715 10.83C9.9296 10.8319 10.1403 10.7914 10.3369 10.7109C10.5336 10.6305 10.7122 10.5117 10.8624 10.3615C11.0127 10.2112 11.1315 10.0326 11.2119 9.83595C11.2924 9.63931 11.3328 9.42862 11.331 9.21618C11.3291 9.00373 11.285 8.79378 11.2012 8.59857C11.1173 8.40337 10.9954 8.22681 10.8426 8.07922L9.7114 6.94802C9.40963 6.65657 9.00547 6.49529 8.58595 6.49894C8.16644 6.50259 7.76514 6.67086 7.46849 6.96751C7.17183 7.26416 7.00356 7.66546 6.99992 8.08498C6.99627 8.50449 7.15754 8.90866 7.449 9.21042L8.5802 10.3416ZM8.5002 15.9992C8.5002 16.4236 8.33162 16.8305 8.03157 17.1306C7.73151 17.4306 7.32454 17.5992 6.9002 17.5992H5.3002C4.87585 17.5992 4.46888 17.4306 4.16882 17.1306C3.86877 16.8305 3.7002 16.4236 3.7002 15.9992C3.7002 15.5749 3.86877 15.1679 4.16882 14.8678C4.46888 14.5678 4.87585 14.3992 5.3002 14.3992H6.9002C7.32454 14.3992 7.73151 14.5678 8.03157 14.8678C8.33162 15.1679 8.5002 15.5749 8.5002 15.9992ZM13.3002 25.5992V23.9992H19.7002V25.5992C19.7002 26.4479 19.3631 27.2618 18.7629 27.862C18.1628 28.4621 17.3489 28.7992 16.5002 28.7992C15.6515 28.7992 14.8376 28.4621 14.2375 27.862C13.6373 27.2618 13.3002 26.4479 13.3002 25.5992ZM19.7002 22.3992C19.7242 21.8552 20.033 21.3656 20.4634 21.0248C21.5077 20.2012 22.2695 19.0728 22.6428 17.7963C23.0162 16.5198 22.9826 15.1587 22.5467 13.9021C22.1109 12.6456 21.2944 11.5561 20.2108 10.785C19.1271 10.0139 17.8302 9.59958 16.5002 9.59958C15.1702 9.59958 13.8733 10.0139 12.7896 10.785C11.706 11.5561 10.8895 12.6456 10.4536 13.9021C10.0178 15.1587 9.9842 16.5198 10.3576 17.7963C10.7309 19.0728 11.4927 20.2012 12.537 21.0248C12.969 21.3656 13.2762 21.8552 13.2986 22.3992H19.7002Z" fill="white"/>
</g>
</svg>
