<svg width="24" height="24" viewBox="0 0 24 24" fill="none" xmlns="http://www.w3.org/2000/svg">
<path id="Vector" d="M4.3872 23.6768C4.2149 23.8413 4.00344 23.9483 3.77764 23.9855C3.55184 24.0226 3.32107 23.9883 3.11243 23.8865C2.90378 23.7847 2.72592 23.6198 2.59973 23.4109C2.47354 23.2021 2.40425 22.9581 2.4 22.7076V19.7537C1.76348 19.7537 1.15303 19.4763 0.702944 18.9823C0.252856 18.4884 0 17.8185 0 17.1199V7.9015C0 7.20296 0.252856 6.53304 0.702944 6.0391C1.15303 5.54516 1.76348 5.26767 2.4 5.26767H15.6C16.2365 5.26767 16.847 5.54516 17.2971 6.0391C17.7471 6.53304 18 7.20296 18 7.9015V17.1199C18 17.8185 17.7471 18.4884 17.2971 18.9823C16.847 19.4763 16.2365 19.7537 15.6 19.7537H9.6036L4.3872 23.6768ZM19.2 13.1916C19.1961 13.3535 19.1961 13.5155 19.2 13.6775V13.1916ZM19.2 13.1916C19.2056 13.0511 19.2072 11.2869 19.2048 7.89887C19.2038 6.85175 18.8241 5.84787 18.1491 5.10782C17.4741 4.36776 16.559 3.95207 15.6048 3.95207H6V2.63383C6 1.9353 6.25286 1.26537 6.70294 0.771432C7.15303 0.277492 7.76348 0 8.4 0L21.6 0C22.2365 0 22.847 0.277492 23.2971 0.771432C23.7471 1.26537 24 1.9353 24 2.63383V11.8522C24 12.5508 23.7471 13.2207 23.2971 13.7146C22.847 14.2086 22.2365 14.4861 21.6 14.4861V17.4399C21.5958 17.6905 21.5265 17.9344 21.4003 18.1433C21.2741 18.3521 21.0962 18.5171 20.8876 18.6188C20.6789 18.7206 20.4482 18.7549 20.2224 18.7178C19.9966 18.6807 19.7851 18.5736 19.6128 18.4092L19.2 18.0984V13.1916Z" fill="#FAF5EE"/>
</svg>
