<svg width="40" height="40" viewBox="0 0 40 40" fill="none" xmlns="http://www.w3.org/2000/svg">
<path d="M11.8701 31.3867C9.99967 31.3867 9.06445 30.7689 9.06445 29.5332C9.06445 28.7461 9.30143 27.9124 9.77539 27.0322C10.2493 26.1436 10.9391 25.3099 11.8447 24.5312C12.7503 23.7441 13.8464 23.1051 15.1328 22.6143C16.4193 22.1149 17.875 21.8652 19.5 21.8652C21.1081 21.8652 22.5553 22.1149 23.8418 22.6143C25.1283 23.1051 26.2243 23.7441 27.1299 24.5312C28.0355 25.3099 28.7253 26.1436 29.1992 27.0322C29.6816 27.9124 29.9229 28.7461 29.9229 29.5332C29.9229 30.7689 28.9876 31.3867 27.1172 31.3867H11.8701ZM11.375 29.7363H27.6123C27.8154 29.7363 27.9593 29.7025 28.0439 29.6348C28.1286 29.5755 28.1709 29.474 28.1709 29.3301C28.1709 28.8053 27.9762 28.2129 27.5869 27.5527C27.2061 26.8926 26.6475 26.2536 25.9111 25.6357C25.1748 25.0179 24.265 24.5101 23.1816 24.1123C22.1068 23.7145 20.8796 23.5156 19.5 23.5156C18.1035 23.5156 16.8678 23.7145 15.793 24.1123C14.7181 24.5101 13.8083 25.0179 13.0635 25.6357C12.3271 26.2536 11.7686 26.8926 11.3877 27.5527C11.0153 28.2129 10.8291 28.8053 10.8291 29.3301C10.8291 29.474 10.8672 29.5755 10.9434 29.6348C11.028 29.7025 11.1719 29.7363 11.375 29.7363ZM19.5 20.3164C18.5605 20.3164 17.7015 20.0667 16.9229 19.5674C16.1442 19.068 15.5264 18.3994 15.0693 17.5615C14.6123 16.7152 14.3838 15.7757 14.3838 14.7432C14.3838 13.7445 14.6123 12.8304 15.0693 12.001C15.5348 11.1715 16.1527 10.5114 16.9229 10.0205C17.7015 9.52962 18.5605 9.28418 19.5 9.28418C20.4479 9.28418 21.3112 9.52539 22.0898 10.0078C22.8685 10.4902 23.4863 11.1462 23.9434 11.9756C24.4004 12.7965 24.6289 13.7148 24.6289 14.7305C24.6289 15.7546 24.3962 16.6898 23.9307 17.5361C23.4736 18.3825 22.8558 19.0596 22.0771 19.5674C21.2985 20.0667 20.4395 20.3164 19.5 20.3164ZM19.5 18.6787C20.1178 18.6787 20.6807 18.5052 21.1885 18.1582C21.6963 17.8027 22.1025 17.3288 22.4072 16.7363C22.7204 16.1354 22.877 15.4668 22.877 14.7305C22.877 14.0111 22.7246 13.3678 22.4199 12.8008C22.1152 12.2253 21.709 11.7725 21.2012 11.4424C20.6934 11.1038 20.1263 10.9346 19.5 10.9346C18.8822 10.9346 18.3151 11.1038 17.7988 11.4424C17.291 11.7809 16.8848 12.238 16.5801 12.8135C16.2839 13.389 16.1357 14.0322 16.1357 14.7432C16.1357 15.4795 16.2881 16.1439 16.5928 16.7363C16.8975 17.3288 17.3037 17.8027 17.8115 18.1582C18.3278 18.5052 18.8906 18.6787 19.5 18.6787Z" fill="#FAF5EE"/>
</svg>
