<svg width="19" height="19" viewBox="0 0 19 19" fill="none" xmlns="http://www.w3.org/2000/svg">
<path d="M0.128906 7.57227C0.128906 6.56315 0.317708 5.61914 0.695312 4.74023C1.07292 3.86133 1.59375 3.08984 2.25781 2.42578C2.92839 1.75521 3.70312 1.23112 4.58203 0.853516C5.46094 0.469401 6.40169 0.277344 7.4043 0.277344C8.41341 0.277344 9.35742 0.469401 10.2363 0.853516C11.1152 1.23112 11.89 1.75521 12.5605 2.42578C13.2311 3.08984 13.7552 3.86133 14.1328 4.74023C14.5104 5.61914 14.6992 6.56315 14.6992 7.57227C14.6992 8.41211 14.5625 9.21289 14.2891 9.97461C14.0156 10.7298 13.638 11.4134 13.1562 12.0254L17.7852 16.6738C17.8763 16.7715 17.9447 16.8789 17.9902 16.9961C18.0423 17.1198 18.0684 17.2467 18.0684 17.377C18.0684 17.5723 18.026 17.7448 17.9414 17.8945C17.8568 18.0508 17.7396 18.1712 17.5898 18.2559C17.4401 18.347 17.2676 18.3926 17.0723 18.3926C16.9421 18.3926 16.8118 18.3665 16.6816 18.3145C16.5579 18.2689 16.4473 18.2005 16.3496 18.1094L11.7012 13.4414C11.0957 13.8841 10.4316 14.2324 9.70898 14.4863C8.98633 14.7337 8.2181 14.8574 7.4043 14.8574C6.40169 14.8574 5.46094 14.6686 4.58203 14.291C3.70312 13.9134 2.92839 13.3893 2.25781 12.7188C1.59375 12.0482 1.07292 11.2734 0.695312 10.3945C0.317708 9.51562 0.128906 8.57487 0.128906 7.57227ZM1.54492 7.57227C1.54492 8.37956 1.69792 9.13802 2.00391 9.84766C2.3099 10.5508 2.72982 11.1725 3.26367 11.7129C3.80404 12.2467 4.42578 12.6667 5.12891 12.9727C5.83854 13.2721 6.59701 13.4219 7.4043 13.4219C8.2181 13.4219 8.97656 13.2721 9.67969 12.9727C10.3893 12.6667 11.0111 12.2467 11.5449 11.7129C12.0853 11.1725 12.5052 10.5508 12.8047 9.84766C13.1107 9.13802 13.2637 8.37956 13.2637 7.57227C13.2637 6.75846 13.1107 6 12.8047 5.29688C12.5052 4.58724 12.0853 3.96549 11.5449 3.43164C11.0111 2.89128 10.3893 2.47135 9.67969 2.17188C8.97656 1.86589 8.2181 1.71289 7.4043 1.71289C6.59701 1.71289 5.83854 1.86589 5.12891 2.17188C4.42578 2.47135 3.80404 2.89128 3.26367 3.43164C2.72982 3.96549 2.3099 4.58724 2.00391 5.29688C1.69792 6 1.54492 6.75846 1.54492 7.57227Z" fill="#FFF8EF"/>
</svg>
