<svg width="25" height="25" viewBox="0 0 25 25" fill="none" xmlns="http://www.w3.org/2000/svg">
<path d="M0.767578 10.0439C0.767578 8.7321 1.01302 7.50488 1.50391 6.3623C1.99479 5.21973 2.67188 4.2168 3.53516 3.35352C4.4069 2.48177 5.41406 1.80046 6.55664 1.30957C7.69922 0.810221 8.9222 0.560547 10.2256 0.560547C11.5374 0.560547 12.7646 0.810221 13.9072 1.30957C15.0498 1.80046 16.057 2.48177 16.9287 3.35352C17.8005 4.2168 18.4818 5.21973 18.9727 6.3623C19.4635 7.50488 19.709 8.7321 19.709 10.0439C19.709 11.1357 19.5312 12.1768 19.1758 13.167C18.8203 14.1488 18.3294 15.0374 17.7031 15.833L23.7207 21.876C23.8392 22.0029 23.9281 22.1426 23.9873 22.2949C24.055 22.4557 24.0889 22.6208 24.0889 22.79C24.0889 23.0439 24.0339 23.2682 23.9238 23.4629C23.8138 23.666 23.6615 23.8226 23.4668 23.9326C23.2721 24.0511 23.0479 24.1104 22.7939 24.1104C22.6247 24.1104 22.4554 24.0765 22.2861 24.0088C22.1253 23.9495 21.9814 23.8607 21.8545 23.7422L15.8115 17.6738C15.0244 18.2493 14.1611 18.7021 13.2217 19.0322C12.2822 19.3538 11.2835 19.5146 10.2256 19.5146C8.9222 19.5146 7.69922 19.2692 6.55664 18.7783C5.41406 18.2874 4.4069 17.6061 3.53516 16.7344C2.67188 15.8626 1.99479 14.8555 1.50391 13.7129C1.01302 12.5703 0.767578 11.3473 0.767578 10.0439ZM2.6084 10.0439C2.6084 11.0934 2.80729 12.0794 3.20508 13.002C3.60286 13.916 4.14876 14.7243 4.84277 15.4268C5.54525 16.1208 6.35352 16.6667 7.26758 17.0645C8.1901 17.4538 9.17611 17.6484 10.2256 17.6484C11.2835 17.6484 12.2695 17.4538 13.1836 17.0645C14.1061 16.6667 14.9144 16.1208 15.6084 15.4268C16.3109 14.7243 16.8568 13.916 17.2461 13.002C17.6439 12.0794 17.8428 11.0934 17.8428 10.0439C17.8428 8.986 17.6439 8 17.2461 7.08594C16.8568 6.16341 16.3109 5.35514 15.6084 4.66113C14.9144 3.95866 14.1061 3.41276 13.1836 3.02344C12.2695 2.62565 11.2835 2.42676 10.2256 2.42676C9.17611 2.42676 8.1901 2.62565 7.26758 3.02344C6.35352 3.41276 5.54525 3.95866 4.84277 4.66113C4.14876 5.35514 3.60286 6.16341 3.20508 7.08594C2.80729 8 2.6084 8.986 2.6084 10.0439Z" fill="#3B3B3B"/>
</svg>
