<svg width="25" height="14" viewBox="0 0 25 14" fill="none" xmlns="http://www.w3.org/2000/svg">
<path d="M1.21484 14.0068C0.893229 14.0068 0.618164 13.8926 0.389648 13.6641C0.169596 13.4271 0.0595703 13.1478 0.0595703 12.8262C0.0595703 12.513 0.169596 12.2422 0.389648 12.0137C0.618164 11.7767 0.893229 11.6582 1.21484 11.6582H23.6602C23.9818 11.6582 24.2526 11.7725 24.4727 12.001C24.7012 12.2295 24.8154 12.5046 24.8154 12.8262C24.8154 13.1478 24.7012 13.4271 24.4727 13.6641C24.2526 13.8926 23.9818 14.0068 23.6602 14.0068H1.21484ZM1.21484 8.50977C0.893229 8.50977 0.618164 8.39551 0.389648 8.16699C0.169596 7.93848 0.0595703 7.66341 0.0595703 7.3418C0.0595703 7.02018 0.169596 6.74512 0.389648 6.5166C0.618164 6.28809 0.893229 6.17383 1.21484 6.17383H23.6602C23.9818 6.17383 24.2526 6.28809 24.4727 6.5166C24.7012 6.73665 24.8154 7.01172 24.8154 7.3418C24.8154 7.66341 24.7012 7.93848 24.4727 8.16699C24.2526 8.39551 23.9818 8.50977 23.6602 8.50977H1.21484ZM1.21484 3.03809C0.893229 3.03809 0.618164 2.9196 0.389648 2.68262C0.169596 2.44564 0.0595703 2.17057 0.0595703 1.85742C0.0595703 1.54427 0.169596 1.27344 0.389648 1.04492C0.618164 0.807943 0.893229 0.689453 1.21484 0.689453H23.6602C23.9818 0.689453 24.2526 0.803711 24.4727 1.03223C24.7012 1.26074 24.8154 1.53581 24.8154 1.85742C24.8154 2.17904 24.7012 2.45833 24.4727 2.69531C24.2526 2.92383 23.9818 3.03809 23.6602 3.03809H1.21484Z" fill="#FFF8EF"/>
</svg>
