<svg width="135" height="34" viewBox="0 0 135 34" fill="none" xmlns="http://www.w3.org/2000/svg">
<g id="beige logo 1">
<path id="Vector" d="M19.075 5.625H10.6625L3.28748 28.0655H10.1875L11.425 23.76H18.4375L19.7375 28.0655H26.725L19.075 5.625ZM12.7375 19.2077C13.275 17.3696 13.7625 15.4574 14.1875 13.4835C14.4 12.5212 14.6 11.559 14.8 10.5967C15.0375 11.559 15.2625 12.5212 15.5 13.4835C15.975 15.4574 16.5 17.3696 17.05 19.2077H12.7375Z" fill="#FAF5EE"/>
<path id="Vector_2" d="M36.3125 27.8315C35.6125 28.0288 34.95 28.1522 34.325 28.2262C33.7 28.2879 33.125 28.3126 32.575 28.3126C30.6625 28.3126 29.2125 27.8931 28.25 27.0296C27.275 26.166 26.7875 24.8953 26.7875 23.2175V15.6181H24.625V11.2262H26.7875V7.2168H32.925V11.2262H35.85V15.6181H32.925V22.6624C32.925 23.0078 33.0125 23.2669 33.2 23.4519C33.375 23.6246 33.675 23.711 34.0875 23.711C34.2625 23.711 34.5375 23.6863 34.8875 23.637C35.2375 23.6 35.4625 23.5506 35.575 23.5136L36.3125 27.8315Z" fill="#FAF5EE"/>
<path id="Vector_3" d="M42.0125 28.337C40.925 28.337 39.9625 28.1643 39.125 27.8065C38.2875 27.4488 37.6375 26.9059 37.1625 26.1904C36.7 25.4625 36.4625 24.5496 36.4625 23.4393C36.4625 22.5141 36.625 21.7245 36.9375 21.0707C37.25 20.4168 37.7 19.8863 38.2625 19.4669C38.8375 19.0474 39.5 18.7267 40.25 18.5046C41.0125 18.2826 41.825 18.1345 42.7125 18.0728C43.6625 17.9988 44.4375 17.9125 45.0125 17.8138C45.5875 17.7151 46 17.567 46.2625 17.3697C46.525 17.1723 46.65 16.9132 46.65 16.5924V16.5308C46.65 16.2347 46.575 15.9879 46.4125 15.7906C46.25 15.5932 46.0375 15.4328 45.75 15.3341C45.4625 15.2354 45.125 15.1737 44.725 15.1737C44.325 15.1737 43.9875 15.2231 43.675 15.3341C43.3625 15.4451 43.1 15.6055 42.8875 15.8276C42.675 16.0496 42.5375 16.3334 42.4625 16.6665L36.9375 16.1236C37.1 15.1861 37.5 14.3225 38.125 13.5453C38.75 12.7681 39.625 12.1512 40.7375 11.6948C41.85 11.2383 43.2125 11.0039 44.8 11.0039C46.0125 11.0039 47.1125 11.1396 48.0875 11.4234C49.075 11.7071 49.9125 12.1019 50.6 12.5953C51.3 13.1011 51.825 13.681 52.2 14.3472C52.575 15.0133 52.7625 15.7412 52.7625 16.5061V28.0409H47.025V25.6599H46.9C46.55 26.2891 46.1375 26.8072 45.65 27.1897C45.1625 27.5721 44.625 27.8559 44.0125 28.0409C43.4 28.226 42.725 28.3123 41.9875 28.3123L42.0125 28.337ZM44 24.5126C44.4625 24.5126 44.9125 24.4139 45.325 24.2289C45.7375 24.0438 46.075 23.7601 46.3375 23.4023C46.6 23.0445 46.725 22.6128 46.725 22.0946V20.7129C46.5625 20.7746 46.3875 20.8363 46.2 20.898C46.0125 20.9596 45.825 21.009 45.6125 21.0583C45.4 21.1077 45.1875 21.157 44.975 21.194C44.75 21.231 44.525 21.2804 44.275 21.3174C43.8 21.3914 43.4125 21.5025 43.1125 21.6752C42.8125 21.8355 42.5875 22.0453 42.45 22.2797C42.3125 22.5141 42.2375 22.7731 42.2375 23.0692C42.2375 23.3776 42.3125 23.649 42.4625 23.8588C42.6125 24.0808 42.825 24.2412 43.0875 24.3522C43.35 24.4633 43.6625 24.5126 44 24.5126Z" fill="#FAF5EE"/>
<path id="Vector_4" d="M80.5375 11.2266L75.5625 28.0662H69.275L67.65 22.527C67.5 21.9842 67.35 21.3303 67.1875 20.5531C67.0375 19.8376 66.9 19.1221 66.775 18.3942C66.6375 19.1221 66.5 19.8376 66.3625 20.5531C66.2 21.3303 66.05 21.9842 65.8875 22.527L64.2625 28.0662H57.975L53.0625 11.2266H59.475L60.45 16.4943C60.675 17.7033 60.925 18.974 61.1875 20.3187C61.35 21.1083 61.5 21.9472 61.625 22.8231C61.7875 21.9472 61.9625 21.1083 62.15 20.3187C62.4625 18.9617 62.75 17.691 63 16.4943L64.15 11.2266H69.45L70.5375 16.4943C70.7875 17.7033 71.0625 18.974 71.3875 20.3187C71.575 21.1206 71.75 21.9595 71.9125 22.8478C72.0375 21.9595 72.175 21.1206 72.325 20.3187C72.5625 18.974 72.8 17.7033 73.025 16.4943L74 11.2266H80.5375Z" fill="#FAF5EE"/>
<path id="Vector_5" d="M85.575 28.337C84.4875 28.337 83.525 28.1643 82.6875 27.8065C81.85 27.4488 81.2 26.9059 80.725 26.1904C80.2625 25.4625 80.025 24.5496 80.025 23.4393C80.025 22.5141 80.1875 21.7245 80.5 21.0707C80.8125 20.4168 81.2625 19.8863 81.825 19.4669C82.4 19.0474 83.0625 18.7267 83.8125 18.5046C84.575 18.2826 85.3875 18.1345 86.275 18.0728C87.225 17.9988 88 17.9125 88.575 17.8138C89.15 17.7151 89.5625 17.567 89.825 17.3697C90.0875 17.1723 90.2125 16.9132 90.2125 16.5924V16.5308C90.2125 16.2347 90.1375 15.9879 89.975 15.7906C89.8125 15.5932 89.6 15.4328 89.3125 15.3341C89.025 15.2354 88.6875 15.1737 88.2875 15.1737C87.8875 15.1737 87.55 15.2231 87.2375 15.3341C86.925 15.4451 86.6625 15.6055 86.45 15.8276C86.2375 16.0496 86.1 16.3334 86.025 16.6665L80.5 16.1236C80.6625 15.1861 81.0625 14.3225 81.6875 13.5453C82.3125 12.7681 83.1875 12.1512 84.3 11.6948C85.4125 11.2383 86.775 11.0039 88.3625 11.0039C89.575 11.0039 90.675 11.1396 91.65 11.4234C92.6375 11.7071 93.475 12.1019 94.1625 12.5953C94.8625 13.1011 95.3875 13.681 95.7625 14.3472C96.1375 15.0133 96.325 15.7412 96.325 16.5061V28.0409H90.5875V25.6599H90.4625C90.1125 26.2891 89.7 26.8072 89.2125 27.1897C88.725 27.5721 88.1875 27.8559 87.575 28.0409C86.9625 28.226 86.2875 28.3123 85.55 28.3123L85.575 28.337ZM87.5625 24.5126C88.025 24.5126 88.475 24.4139 88.8875 24.2289C89.3 24.0438 89.6375 23.7601 89.9 23.4023C90.1625 23.0445 90.2875 22.6128 90.2875 22.0946V20.7129C90.125 20.7746 89.95 20.8363 89.7625 20.898C89.575 20.9596 89.3875 21.009 89.175 21.0583C88.9625 21.1077 88.75 21.157 88.5375 21.194C88.3125 21.231 88.0875 21.2804 87.8375 21.3174C87.3625 21.3914 86.975 21.5025 86.675 21.6752C86.375 21.8355 86.15 22.0453 86.0125 22.2797C85.875 22.5141 85.8 22.7731 85.8 23.0692C85.8 23.3776 85.875 23.649 86.025 23.8588C86.175 24.0808 86.3875 24.2412 86.65 24.3522C86.9125 24.4633 87.225 24.5126 87.5625 24.5126Z" fill="#FAF5EE"/>
<path id="Vector_6" d="M115.725 28.0655H108.738L105.25 22.1315L104.338 23.2788V28.0655H98.2V5.625H104.338V16.8884H104.55L108.675 11.2259H115.575L109.775 18.6032L115.725 28.0655Z" fill="#FAF5EE"/>
<path id="Vector_7" d="M131.712 19.6656C131.712 18.3209 131.512 17.1119 131.112 16.051C130.725 14.9777 130.15 14.0771 129.412 13.3245C128.662 12.5843 127.775 12.0045 126.737 11.6097C125.687 11.215 124.525 11.0176 123.225 11.0176C121.475 11.0176 119.95 11.3753 118.65 12.1032C117.362 12.8187 116.362 13.8304 115.65 15.138C114.95 16.4334 114.6 17.9508 114.6 19.6903C114.6 21.4298 114.95 23.0582 115.65 24.3536C116.35 25.6489 117.362 26.6482 118.675 27.3391C119.987 28.0176 121.562 28.363 123.387 28.363C124.837 28.363 126.112 28.1656 127.225 27.7585C128.325 27.3637 129.237 26.7962 129.962 26.056C130.687 25.3158 131.187 24.4399 131.475 23.4407L126.062 22.6634C125.95 22.9719 125.762 23.2309 125.525 23.453C125.275 23.6627 124.987 23.8354 124.637 23.9465C124.3 24.0575 123.925 24.1192 123.5 24.1192C122.925 24.1192 122.412 23.9958 121.975 23.7614C121.537 23.527 121.2 23.1692 120.962 22.6758C120.75 22.244 120.625 21.7012 120.612 21.0473H131.712V19.6656ZM120.65 17.7288C120.687 17.3463 120.787 17.0009 120.912 16.7048C121.112 16.236 121.412 15.8782 121.812 15.6315C122.212 15.3848 122.7 15.2614 123.287 15.2614C123.875 15.2614 124.375 15.3848 124.775 15.6315C125.162 15.8782 125.462 16.236 125.675 16.7048C125.8 17.0009 125.887 17.3463 125.937 17.7288H120.65Z" fill="#FAF5EE"/>
</g>
</svg>
