<svg width="1140" height="387" viewBox="0 0 1140 387" fill="none" xmlns="http://www.w3.org/2000/svg">
<rect y="83" width="1140" height="219" rx="25" fill="#93151F"/>
<path d="M981.221 173.763C986.154 144.732 998.385 116.007 1016.59 90.6894C1017.64 89.2447 1019.92 88.7486 1021.7 89.5949C1023.49 90.4413 1024.09 92.2945 1023.05 93.7391C1005.33 118.378 993.426 146.337 988.629 174.587C987.153 183.284 986.271 192.324 985.416 201.058C984.497 210.491 983.552 220.057 981.851 229.52C984.327 230.344 987.018 230.65 989.907 230.417C998.961 229.68 1009.27 223.559 1014.97 215.533C1018.57 210.462 1019.75 203.283 1014.85 199.985C1013.67 199.19 1013.21 197.898 1013.68 196.716C1014.15 195.534 1015.46 194.71 1016.99 194.63C1029.83 193.958 1040.35 191.164 1048.24 186.334C1057.3 180.789 1062.54 172.114 1061.58 164.227C1060.56 155.763 1051.68 148.54 1042.2 148.445C1040.56 148.431 1039.13 147.555 1038.66 146.278C1038.19 145.009 1038.8 143.637 1040.16 142.893C1050.72 137.166 1060.46 131.336 1063.66 123.011C1065.66 117.838 1064.95 112.22 1064.2 106.274C1063.94 104.209 1063.69 102.152 1063.54 100.101C1062.14 80.7083 1071.73 60.8337 1088.56 46.9492L1070.11 49.1162C1053.28 51.0934 1035.88 53.1363 1020.91 59.7539C1005.03 66.7727 994.704 78.8916 994.623 90.631C994.623 91.8203 993.75 92.8928 992.409 93.3816C991.068 93.8632 989.502 93.6662 988.404 92.8855C985.551 90.8426 980.582 90.5945 976.325 92.3018C972.599 93.7902 969.233 96.5408 965.732 100.955C951.944 118.349 950.36 141.551 961.691 160.068C962.573 161.513 961.907 163.271 960.17 164.059C958.433 164.847 956.237 164.395 955.175 163.023C954.545 162.206 953.357 162.016 952.484 162.001C952.448 162.001 952.412 162.001 952.376 162.001C950.315 162.001 948.065 162.913 946.994 164.19C944.447 167.225 944.879 171.618 945.635 175.521C949.163 193.615 959.315 210.849 975.002 225.375C976.334 217.138 977.153 208.813 977.954 200.591C978.818 191.77 979.709 182.642 981.212 173.77L981.221 173.763Z" fill="#FFF8EF" fill-opacity="0.2"/>
<path d="M869.927 199.455C869.342 197.855 870.463 196.167 872.445 195.685C874.41 195.21 876.501 196.119 877.096 197.726C884.662 218.281 892.595 242.699 894.044 267.927C894.754 280.29 893.784 292.176 891.233 303.325C907.164 298.797 921.767 281.374 922.129 268.415C922.21 265.421 921.521 263.19 920.067 261.796C918.799 260.567 916.334 260.073 915.201 260.811C913.957 261.621 912.214 261.696 910.87 261.006C909.526 260.315 908.864 259.011 909.225 257.749C912.291 247.18 913.082 236.349 911.567 225.556C911.032 221.723 910.063 217.43 906.983 214.614C904.594 212.434 899.832 211.291 897.278 213.097C896.056 213.964 894.28 214.085 892.883 213.404C891.495 212.723 890.804 211.391 891.19 210.107C893.733 201.495 890.027 191.275 880.155 179.722C878.09 177.306 875.852 174.878 873.683 172.526C869.218 167.682 864.662 162.727 861.027 157.314C857.405 168.387 854.182 179.71 853.427 191.11C852.705 202.018 854.114 217.781 864.928 230.887C865.806 231.953 865.762 233.352 864.824 234.38C863.886 235.408 862.242 235.844 860.734 235.468C854.507 233.925 847.613 232.724 843.749 235.54C838.204 239.577 843.226 248.054 847.068 252.425C854.743 261.153 863.929 268.919 874.375 275.5C875.903 276.467 876.275 278.217 875.224 279.536C874.173 280.855 872.053 281.308 870.336 280.57C866.855 279.076 863.244 277.771 860.119 277.932C859.526 277.963 858.946 278.044 858.389 278.19C851.382 280.028 851.916 282.691 852.14 283.827C853.808 292.2 874.945 304.122 883.391 304.417C886.228 293.107 887.319 280.93 886.591 268.217C885.175 243.638 877.377 219.673 869.946 199.462L869.927 199.455Z" fill="#FFF8EF" fill-opacity="0.2"/>
<path d="M1107.24 236.245C1104.29 236.588 1101.5 236.902 1098.72 237.361C1079.06 240.571 1061.18 250.815 1050.88 264.765C1050.15 265.758 1048.78 266.327 1047.37 266.232C1045.95 266.137 1044.73 265.4 1044.2 264.328C1042.13 260.089 1037.55 258.213 1034.09 257.382C1027.16 255.725 1018.62 256.871 1012.83 260.234C1002.44 266.268 997.278 276.556 992.058 288.383C991.608 289.397 990.537 290.141 989.232 290.338C987.927 290.543 986.595 290.163 985.722 289.346C982.77 286.595 977.964 285.07 972.708 285.07C971.043 285.07 969.342 285.224 967.632 285.537C960.144 286.924 953.655 290.915 948.831 294.234C940.245 300.151 929.913 307.922 923.649 316.123C946.689 313.212 968.766 306.769 991.221 299.823C1027.41 288.638 1065.42 276.052 1097.47 256.236C1099.1 255.215 1101.45 255.477 1102.7 256.805C1103.96 258.133 1103.64 260.037 1102 261.052C1069.16 281.357 1030.59 294.139 993.885 305.485C970.494 312.715 947.481 319.45 923.1 322.346C921.938 322.485 920.795 322.587 919.643 322.704C918.509 325.279 917.888 327.862 917.996 330.416C918.275 336.807 922.856 342.564 931.992 348.014C940.227 352.924 949.884 355.252 958.488 354.42C967.929 353.501 976.209 348.525 979.098 342.046C979.548 341.024 980.646 340.28 981.96 340.09C983.274 339.893 984.615 340.295 985.479 341.119C995.766 351.02 1015.7 350.276 1027.85 343.366C1043.81 334.305 1048.81 318.093 1050.38 309.242C1050.67 307.594 1052.56 306.433 1054.59 306.667C1079.86 309.498 1103.61 293.585 1115.96 276.556C1124.45 264.846 1129.89 251.545 1135.15 238.689C1136.72 234.859 1138.31 230.963 1140 227.066C1133.34 230.649 1125.88 233.283 1118.14 234.727C1114.49 235.406 1110.81 235.829 1107.25 236.238L1107.24 236.245Z" fill="#FFF8EF" fill-opacity="0.2"/>
<path d="M448.261 173.763C453.193 144.732 465.424 116.007 483.631 90.6894C484.675 89.2447 486.961 88.7486 488.743 89.5949C490.525 90.4413 491.128 92.2945 490.093 93.7391C472.372 118.378 460.465 146.337 455.668 174.587C454.192 183.284 453.31 192.324 452.455 201.058C451.537 210.491 450.592 220.057 448.891 229.52C451.366 230.344 454.057 230.65 456.946 230.417C466 229.68 476.305 223.559 482.011 215.533C485.611 210.462 486.79 203.283 481.885 199.985C480.706 199.19 480.247 197.898 480.715 196.716C481.192 195.534 482.497 194.71 484.027 194.63C496.87 193.958 507.391 191.164 515.284 186.334C524.338 180.789 529.576 172.114 528.622 164.227C527.596 155.763 518.722 148.54 509.236 148.445C507.598 148.431 506.167 147.555 505.699 146.278C505.231 145.009 505.843 143.637 507.202 142.893C517.759 137.166 527.497 131.336 530.701 123.011C532.699 117.838 531.988 112.22 531.241 106.274C530.98 104.209 530.728 102.152 530.575 100.101C529.18 80.7083 538.774 60.8337 555.595 46.9492L537.154 49.1162C520.324 51.0934 502.918 53.1363 487.951 59.7539C472.066 66.7727 461.743 78.8916 461.662 90.631C461.662 91.8203 460.789 92.8928 459.448 93.3816C458.107 93.8632 456.541 93.6662 455.443 92.8855C452.59 90.8426 447.622 90.5945 443.365 92.3018C439.639 93.7902 436.272 96.5408 432.771 100.955C418.983 118.349 417.399 141.551 428.73 160.068C429.612 161.513 428.946 163.271 427.209 164.059C425.472 164.847 423.276 164.395 422.214 163.023C421.584 162.206 420.396 162.016 419.523 162.001C419.487 162.001 419.451 162.001 419.415 162.001C417.354 162.001 415.104 162.913 414.033 164.19C411.486 167.225 411.918 171.618 412.674 175.521C416.202 193.615 426.354 210.849 442.042 225.375C443.374 217.138 444.193 208.813 444.994 200.591C445.858 191.77 446.749 182.642 448.252 173.77L448.261 173.763Z" fill="#FFF8EF" fill-opacity="0.2"/>
<path d="M348.689 231.625C348.103 230.025 349.224 228.337 351.206 227.855C353.171 227.38 355.263 228.289 355.858 229.896C363.424 250.451 371.357 274.869 372.806 300.097C373.515 312.46 372.546 324.346 369.994 335.495C385.926 330.967 400.529 313.544 400.891 300.585C400.972 297.591 400.282 295.36 398.829 293.966C397.56 292.737 395.096 292.243 393.963 292.981C392.719 293.791 390.975 293.866 389.632 293.175C388.288 292.484 387.626 291.181 387.987 289.919C391.053 279.35 391.844 268.519 390.329 257.726C389.793 253.893 388.825 249.6 385.745 246.784C383.355 244.604 378.594 243.461 376.039 245.267C374.818 246.134 373.042 246.255 371.645 245.574C370.256 244.893 369.566 243.561 369.952 242.277C372.495 233.665 368.789 223.445 358.917 211.892C356.852 209.476 354.614 207.048 352.445 204.696C347.979 199.852 343.424 194.897 339.788 189.484C336.167 200.557 332.944 211.88 332.188 223.28C331.467 234.188 332.876 249.951 343.69 263.057C344.567 264.123 344.524 265.522 343.586 266.55C342.647 267.578 341.004 268.013 339.496 267.638C333.269 266.095 326.375 264.894 322.511 267.71C316.966 271.747 321.988 280.224 325.83 284.595C333.504 293.323 342.691 301.089 353.137 307.67C354.664 308.637 355.036 310.387 353.986 311.706C352.935 313.025 350.815 313.478 349.098 312.74C345.617 311.246 342.006 309.941 338.88 310.102C338.288 310.133 337.708 310.214 337.151 310.359C330.144 312.198 330.678 314.861 330.902 315.997C332.57 324.37 353.707 336.292 362.153 336.587C364.99 325.277 366.08 313.099 365.353 300.387C363.936 275.808 356.138 251.843 348.707 231.632L348.689 231.625Z" fill="#FFF8EF" fill-opacity="0.2"/>
<path d="M574.28 236.245C571.328 236.588 568.538 236.902 565.757 237.361C546.101 240.571 528.218 250.815 517.922 264.765C517.193 265.758 515.816 266.327 514.412 266.232C512.99 266.137 511.766 265.4 511.235 264.328C509.165 260.089 504.593 258.213 501.128 257.382C494.198 255.725 485.657 256.871 479.87 260.234C469.484 266.268 464.318 276.556 459.098 288.383C458.648 289.397 457.577 290.141 456.272 290.338C454.967 290.543 453.635 290.163 452.762 289.346C449.81 286.595 445.004 285.07 439.748 285.07C438.083 285.07 436.382 285.224 434.672 285.537C427.184 286.924 420.695 290.915 415.871 294.234C407.285 300.151 396.953 307.922 390.689 316.123C413.729 313.212 435.806 306.769 458.261 299.823C494.45 288.638 532.457 276.052 564.506 256.236C566.144 255.215 568.493 255.477 569.744 256.805C570.995 258.133 570.68 260.037 569.042 261.052C536.201 281.357 497.627 294.139 460.925 305.485C437.534 312.715 414.521 319.45 390.14 322.346C388.979 322.485 387.836 322.587 386.684 322.704C385.55 325.279 384.929 327.862 385.037 330.416C385.316 336.807 389.897 342.564 399.032 348.014C407.267 352.924 416.924 355.252 425.528 354.42C434.969 353.501 443.249 348.525 446.138 342.046C446.588 341.024 447.686 340.28 449 340.09C450.314 339.893 451.655 340.295 452.519 341.119C462.806 351.02 482.741 350.276 494.891 343.366C510.848 334.305 515.852 318.093 517.418 309.242C517.706 307.594 519.596 306.433 521.63 306.667C546.902 309.498 570.653 293.585 583.001 276.556C591.489 264.846 596.934 251.545 602.19 238.689C603.756 234.859 605.349 230.963 607.041 227.066C600.381 230.649 592.92 233.283 585.18 234.727C581.534 235.406 577.853 235.829 574.289 236.238L574.28 236.245Z" fill="#FFF8EF" fill-opacity="0.2"/>
<path d="M709.954 328.509C697.555 303.828 691.077 276.697 691.216 250.048C691.228 248.525 692.75 247.292 694.628 247.301C696.506 247.311 698.02 248.548 698.015 250.068C697.879 276.004 704.183 302.411 716.25 326.428C719.965 333.821 724.341 341.265 728.566 348.459C733.134 356.226 737.755 364.108 741.723 372.187C744.134 371.924 746.426 371.174 748.57 369.925C755.287 366.007 759.969 357.388 759.961 348.964C759.953 343.644 756.854 337.555 751.142 336.766C749.767 336.574 748.681 335.726 748.387 334.623C748.1 333.516 748.665 332.386 749.825 331.759C759.563 326.496 766.281 320.417 769.788 313.704C773.809 306 773.068 297.237 767.893 291.377C762.338 285.09 751.298 282.673 743.775 286.095C742.476 286.687 740.858 286.525 739.774 285.692C738.693 284.865 738.406 283.559 739.059 282.472C744.16 274.07 748.56 265.889 746.414 258.152C745.086 253.342 741.375 249.179 737.452 244.772C736.088 243.242 734.736 241.714 733.465 240.156C721.489 225.398 717.898 206.209 723.358 189.074L710.05 197.578C697.905 205.339 685.343 213.364 677.267 224.092C668.694 235.475 667.361 248.824 673.881 258.1C674.549 259.036 674.463 260.203 673.681 261.082C672.895 261.955 671.551 262.377 670.248 262.167C666.856 261.61 662.804 263.246 660.409 266.16C658.309 268.705 657.201 272.112 656.92 276.879C655.817 295.66 667.583 314.516 686.892 324.922C688.397 325.735 688.859 327.365 687.933 328.626C687.007 329.887 685.024 330.34 683.418 329.651C682.464 329.24 681.422 329.529 680.726 329.839C680.697 329.852 680.669 329.865 680.641 329.879C679.018 330.638 677.757 332.186 677.63 333.586C677.326 336.915 680.13 340.215 682.915 343.011C695.842 355.96 713.503 365.79 734.005 371.448C730.433 364.47 726.409 357.612 722.428 350.841C718.161 343.576 713.744 336.059 709.951 328.518L709.954 328.509Z" fill="#FFF8EF" fill-opacity="0.2"/>
<path d="M176.992 328.509C164.593 303.828 158.115 276.697 158.254 250.048C158.266 248.525 159.788 247.292 161.666 247.301C163.544 247.311 165.058 248.548 165.053 250.068C164.917 276.004 171.221 302.411 183.288 326.428C187.003 333.821 191.379 341.265 195.604 348.459C200.172 356.226 204.793 364.108 208.761 372.187C211.172 371.924 213.464 371.174 215.608 369.925C222.325 366.007 227.007 357.388 227 348.964C226.991 343.644 223.892 337.555 218.18 336.766C216.805 336.574 215.72 335.726 215.425 334.623C215.138 333.516 215.703 332.386 216.863 331.759C226.601 326.496 233.32 320.417 236.827 313.704C240.847 306 240.106 297.237 234.931 291.377C229.376 285.09 218.337 282.673 210.813 286.095C209.515 286.687 207.896 286.525 206.812 285.692C205.731 284.865 205.444 283.559 206.097 282.472C211.198 274.07 215.598 265.889 213.452 258.152C212.124 253.342 208.413 249.179 204.49 244.772C203.126 243.242 201.774 241.714 200.503 240.156C188.528 225.398 184.936 206.209 190.396 189.074L177.088 197.578C164.943 205.339 152.381 213.364 144.305 224.092C135.732 235.475 134.399 248.824 140.92 258.1C141.587 259.036 141.501 260.203 140.719 261.082C139.933 261.955 138.589 262.377 137.286 262.167C133.894 261.61 129.842 263.246 127.447 266.16C125.347 268.705 124.239 272.112 123.958 276.879C122.855 295.66 134.621 314.516 153.93 324.922C155.435 325.735 155.897 327.365 154.971 328.626C154.045 329.887 152.062 330.34 150.456 329.651C149.502 329.24 148.46 329.529 147.764 329.839C147.736 329.852 147.707 329.865 147.679 329.879C146.056 330.638 144.795 332.186 144.668 333.586C144.364 336.915 147.168 340.215 149.953 343.011C162.88 355.96 180.541 365.79 201.043 371.448C197.472 364.47 193.447 357.612 189.466 350.841C185.199 343.576 180.782 336.059 176.989 328.518L176.992 328.509Z" fill="#FFF8EF" fill-opacity="0.2"/>
<path d="M577.99 65.258C576.817 64.234 576.884 62.6297 578.15 61.6704C579.406 60.7225 581.392 60.7737 582.575 61.7999C597.677 74.9412 614.825 90.8703 627.481 109.361C633.682 118.422 638.405 127.632 641.603 136.765C651.479 128.567 654.446 111.095 648.775 101.263C647.462 98.9928 645.922 97.5268 644.193 96.9186C642.677 96.3792 640.602 96.7512 640.091 97.6464C639.529 98.6289 638.255 99.2109 636.93 99.0975C635.605 98.984 634.511 98.2053 634.203 97.1501C631.657 88.2969 627.284 79.9323 621.198 72.2914C619.039 69.5774 616.344 66.6487 612.742 65.4637C609.949 64.5486 605.853 65.1256 604.765 67.2504C604.246 68.2692 602.969 68.8951 601.608 68.8053C600.254 68.7125 599.126 67.9217 598.826 66.8415C596.785 59.6141 589.319 53.064 576.615 47.3708C573.958 46.1809 571.165 45.0332 568.459 43.9223C562.888 41.6344 557.198 39.2893 551.989 36.3242C554.349 45.7228 557.123 55.1889 561.784 63.9693C566.244 72.3708 574.529 83.7719 588.652 90.3457C589.799 90.8811 590.408 91.9435 590.175 92.9976C589.943 94.0517 588.91 94.8737 587.606 95.0467C582.227 95.7654 576.504 96.9416 574.896 100.219C572.587 104.919 580.242 109.766 585.129 111.887C594.889 116.122 605.341 119.18 616.196 120.97C617.786 121.235 618.867 122.435 618.684 123.742C618.5 125.048 617.118 126.027 615.491 125.991C612.194 125.919 608.887 126.027 606.616 127.09C606.185 127.292 605.787 127.528 605.436 127.805C601.022 131.296 602.644 133.132 603.333 133.917C608.424 139.696 629.749 142.271 636.221 139.948C633.163 130.607 628.397 121.142 622.022 111.824C609.689 93.8106 592.849 78.1812 578.007 65.2572L577.99 65.258Z" fill="#FFF8EF" fill-opacity="0.2"/>
<path d="M45.0299 65.258C43.8569 64.234 43.9238 62.6297 45.1897 61.6704C46.4463 60.7225 48.4318 60.7737 49.6152 61.7999C64.7171 74.9412 81.8654 90.8703 94.5207 109.361C100.722 118.422 105.445 127.632 108.643 136.765C118.519 128.567 121.486 111.095 115.815 101.263C114.503 98.9928 112.963 97.5268 111.233 96.9186C109.718 96.3792 107.642 96.7512 107.131 97.6464C106.569 98.6289 105.295 99.2109 103.97 99.0975C102.645 98.984 101.551 98.2053 101.243 97.1501C98.6971 88.2969 94.3236 79.9323 88.2379 72.2914C86.0789 69.5774 83.384 66.6487 79.7817 65.4637C76.9895 64.5486 72.8931 65.1256 71.8046 67.2504C71.2859 68.2692 70.0088 68.8951 68.6483 68.8053C67.2944 68.7125 66.1656 67.9217 65.8662 66.8415C63.8253 59.6141 56.3586 53.064 43.6549 47.3708C40.9976 46.1809 38.205 45.0332 35.4995 43.9223C29.9284 41.6344 24.2382 39.2893 19.0288 36.3242C21.3891 45.7228 24.1629 55.1889 28.8238 63.9693C33.2844 72.3708 41.5695 83.7719 55.6923 90.3457C56.8393 90.8811 57.448 91.9435 57.2154 92.9976C56.9828 94.0517 55.9499 94.8737 54.646 95.0467C49.2671 95.7654 43.5439 96.9416 41.9365 100.219C39.6275 104.919 47.2821 109.766 52.169 111.887C61.9289 116.122 72.3815 119.18 83.2365 120.97C84.826 121.235 85.9074 122.435 85.7239 123.742C85.5404 125.048 84.1578 126.027 82.5313 125.991C79.2342 125.919 75.927 126.027 73.6559 127.09C73.2252 127.292 72.8274 127.528 72.4765 127.805C68.0625 131.296 69.684 133.132 70.3734 133.917C75.4637 139.696 96.7887 142.271 103.261 139.948C100.203 130.607 95.4369 121.142 89.0617 111.824C76.7286 93.8106 59.8895 78.1812 45.0467 65.2572L45.0299 65.258Z" fill="#FFF8EF" fill-opacity="0.2"/>
<path d="M887.138 14.7327C885.51 15.7692 883.968 16.7426 882.493 17.8012C872.053 25.26 865.69 36.4474 865.473 47.7282C865.459 48.5296 864.875 49.259 863.991 49.597C863.096 49.94 862.045 49.8414 861.266 49.3462C858.208 47.3807 854.657 47.5399 852.219 48.0147C847.345 48.9687 842.701 52.0598 840.663 55.7093C837.004 62.2575 838.302 69.8938 840.227 78.4706C840.391 79.2067 840.066 79.9553 839.366 80.4408C838.669 80.9307 837.706 81.0773 836.831 80.8318C833.88 80.009 830.338 80.4445 827.179 81.923C826.179 82.3914 825.222 82.962 824.328 83.6316C820.421 86.5712 818.229 90.7953 816.751 94.1476C814.123 100.119 811.24 107.696 810.985 114.387C823.587 106.156 834.098 96.0734 844.621 85.582C861.584 68.6793 879.04 50.4232 889.82 29.4975C890.368 28.4228 891.892 27.9198 893.212 28.366C894.532 28.8122 895.158 30.0454 894.608 31.1157C883.561 52.558 865.848 71.0919 848.646 88.2354C837.682 99.1612 826.733 109.682 813.319 118.282C812.681 118.692 812.037 119.075 811.395 119.469C811.816 121.336 812.548 123.063 813.706 124.567C816.61 128.33 821.827 130.502 829.65 131.207C836.702 131.842 843.502 130.524 848.317 127.604C853.598 124.396 856.445 119.076 855.408 114.369C855.241 113.629 855.582 112.872 856.291 112.389C856.996 111.901 857.974 111.765 858.846 112.017C869.267 115.074 880.93 109.019 885.275 101.448C890.987 91.5131 887.055 80.3616 884.208 74.6019C883.675 73.5298 884.315 72.3009 885.637 71.869C902.038 66.4613 909.502 50.2159 909.634 36.5073C909.723 27.0817 907.302 17.5559 904.958 8.35066C904.26 5.60792 903.549 2.81813 902.899 0.000488463C900.429 4.02711 897.072 7.70898 893.039 10.7546C891.138 12.1878 889.107 13.4776 887.14 14.7257L887.138 14.7327Z" fill="#FFF8EF" fill-opacity="0.2"/>
<path d="M354.178 14.7327C352.55 15.7692 351.008 16.7426 349.533 17.8012C339.093 25.26 332.73 36.4474 332.513 47.7282C332.499 48.5296 331.915 49.259 331.031 49.597C330.136 49.94 329.085 49.8414 328.306 49.3462C325.248 47.3807 321.697 47.5399 319.259 48.0147C314.385 48.9687 309.742 52.0598 307.703 55.7093C304.044 62.2575 305.342 69.8938 307.267 78.4706C307.431 79.2067 307.106 79.9553 306.406 80.4408C305.709 80.9307 304.746 81.0773 303.871 80.8318C300.92 80.009 297.378 80.4445 294.219 81.923C293.219 82.3914 292.262 82.962 291.368 83.6316C287.461 86.5712 285.27 90.7953 283.791 94.1476C281.163 100.119 278.28 107.696 278.025 114.387C290.627 106.156 301.138 96.0734 311.661 85.582C328.624 68.6793 346.08 50.4232 356.86 29.4975C357.408 28.4228 358.932 27.9198 360.252 28.366C361.572 28.8122 362.198 30.0454 361.648 31.1157C350.601 52.558 332.888 71.0919 315.686 88.2354C304.722 99.1612 293.773 109.682 280.359 118.282C279.721 118.692 279.077 119.075 278.435 119.469C278.856 121.336 279.588 123.063 280.746 124.567C283.65 128.33 288.867 130.502 296.69 131.207C303.742 131.842 310.542 130.524 315.357 127.604C320.638 124.396 323.485 119.076 322.448 114.369C322.281 113.629 322.622 112.872 323.331 112.389C324.036 111.901 325.014 111.765 325.886 112.017C336.307 115.074 347.97 109.019 352.315 101.448C358.027 91.5131 354.095 80.3616 351.248 74.6019C350.715 73.5298 351.355 72.3009 352.677 71.869C369.078 66.4613 376.542 50.2159 376.674 36.5073C376.763 27.0817 374.342 17.5559 371.998 8.35066C371.3 5.60792 370.589 2.81813 369.939 0.000488463C367.469 4.02711 364.112 7.70898 360.079 10.7546C358.178 12.1878 356.147 13.4776 354.18 14.7257L354.178 14.7327Z" fill="#FFF8EF" fill-opacity="0.2"/>
</svg>
