<svg width="23" height="20" viewBox="0 0 23 20" fill="none" xmlns="http://www.w3.org/2000/svg">
<path d="M4.25 19.3C3.58333 19.3 3.05 19.0293 2.65 18.488C2.25 17.9467 2.11667 17.334 2.25 16.65C2.43334 15.8 2.55834 14.95 2.625 14.1C2.69167 13.25 2.73334 12.4 2.75 11.55C2.06667 11.2833 1.52067 10.8583 1.112 10.275C0.703335 9.69168 0.499335 9.03334 0.500002 8.30001V7.60001C0.500002 7.21668 0.612668 6.86668 0.838002 6.55001C1.06334 6.23334 1.359 6.00001 1.725 5.85001C3.30833 5.21668 4.8 4.43334 6.2 3.50001C7.6 2.56667 8.95 1.55001 10.25 0.450009C10.4333 0.300009 10.6293 0.187675 10.838 0.113009C11.0467 0.0383419 11.2673 0.000675362 11.5 8.69567e-06C11.7327 -0.000657971 11.9537 0.0370086 12.163 0.113009C12.3723 0.189009 12.568 0.301342 12.75 0.450009C14.05 1.55001 15.4 2.56667 16.8 3.50001C18.2 4.43334 19.6917 5.21668 21.275 5.85001C21.6417 6.00001 21.9377 6.23334 22.163 6.55001C22.3883 6.86668 22.5007 7.21668 22.5 7.60001V8.30001C22.5 9.03334 22.296 9.69168 21.888 10.275C21.48 10.8583 20.934 11.2833 20.25 11.55C20.2667 12.4 20.3083 13.25 20.375 14.1C20.4417 14.95 20.5667 15.8 20.75 16.65C20.8833 17.3333 20.75 17.946 20.35 18.488C19.95 19.03 19.4167 19.3007 18.75 19.3H4.25ZM5.4 6.30001H17.6C16.5 5.68334 15.446 5.01668 14.438 4.30001C13.43 3.58334 12.4507 2.81667 11.5 2.00001C10.55 2.81667 9.571 3.58334 8.563 4.30001C7.555 5.01668 6.50067 5.68334 5.4 6.30001ZM14 9.80001C14.4167 9.80001 14.771 9.65434 15.063 9.36301C15.355 9.07168 15.5007 8.71734 15.5 8.30001H12.5C12.5 8.71668 12.646 9.07101 12.938 9.36301C13.23 9.65501 13.584 9.80068 14 9.80001ZM9 9.80001C9.41667 9.80001 9.771 9.65434 10.063 9.36301C10.355 9.07168 10.5007 8.71734 10.5 8.30001H7.5C7.5 8.71668 7.646 9.07101 7.938 9.36301C8.23 9.65501 8.584 9.80068 9 9.80001ZM4 9.80001C4.41667 9.80001 4.771 9.65434 5.063 9.36301C5.355 9.07168 5.50067 8.71734 5.5 8.30001H2.5C2.5 8.71668 2.646 9.07101 2.938 9.36301C3.23 9.65501 3.584 9.80068 4 9.80001ZM4.15 17.3H6.825C6.975 16.3 7.09167 15.3083 7.175 14.325C7.25834 13.3417 7.325 12.35 7.375 11.35C7.20833 11.2667 7.05433 11.179 6.913 11.087C6.77167 10.995 6.634 10.8827 6.5 10.75C6.26667 10.9833 6 11.1833 5.7 11.35C5.4 11.5167 5.08333 11.6417 4.75 11.725C4.71667 12.675 4.65833 13.6127 4.575 14.538C4.49167 15.4633 4.35 16.384 4.15 17.3ZM8.85 17.3H14.15C14.0167 16.3833 13.9127 15.4667 13.838 14.55C13.7633 13.6333 13.7007 12.7083 13.65 11.775C13.2333 11.7417 12.8417 11.6377 12.475 11.463C12.1083 11.2883 11.7833 11.059 11.5 10.775C11.2167 11.0583 10.8917 11.2877 10.525 11.463C10.1583 11.6383 9.76667 11.7423 9.35 11.775C9.3 12.7083 9.23767 13.6333 9.163 14.55C9.08834 15.4667 8.984 16.3833 8.85 17.3ZM16.175 17.3H18.85C18.65 16.3833 18.5083 15.4627 18.425 14.538C18.3417 13.6133 18.2833 12.6757 18.25 11.725C17.9167 11.6417 17.6 11.5207 17.3 11.362C17 11.2033 16.7333 10.9993 16.5 10.75C16.3667 10.8833 16.229 10.996 16.087 11.088C15.945 11.18 15.791 11.2673 15.625 11.35C15.675 12.35 15.746 13.3417 15.838 14.325C15.93 15.3083 16.0423 16.3 16.175 17.3ZM19 9.80001C19.4167 9.80001 19.771 9.65434 20.063 9.36301C20.355 9.07168 20.5007 8.71734 20.5 8.30001H17.5C17.5 8.71668 17.646 9.07101 17.938 9.36301C18.23 9.65501 18.584 9.80068 19 9.80001Z" fill="#93151F"/>
</svg>
