<svg width="20" height="20" viewBox="0 0 20 20" fill="none" xmlns="http://www.w3.org/2000/svg">
<rect width="20" height="20" fill="black"/>
<g id="Dashboard" clip-path="url(#clip0_332_390)">
<rect width="1280" height="2741" transform="translate(-695 -1405)" fill="#FAF5EE"/>
<g id="Dashboard Content">
<g id="Events Section">
<g id="Markets">
<g id="Frame 348">
<g id="Events Cards">
<g id="Frame 247">
<g id="Frame 243">
<g id="Frame 242">
<g id="Frame 240">
<path id="Vector" d="M10 0C15.523 0 20 4.477 20 10C20 15.523 15.523 20 10 20C4.477 20 0 15.523 0 10C0 4.477 4.477 0 10 0ZM10 4C9.73478 4 9.48043 4.10536 9.29289 4.29289C9.10536 4.48043 9 4.73478 9 5V10C9.00006 10.2652 9.10545 10.5195 9.293 10.707L12.293 13.707C12.4816 13.8892 12.7342 13.99 12.9964 13.9877C13.2586 13.9854 13.5094 13.8802 13.6948 13.6948C13.8802 13.5094 13.9854 13.2586 13.9877 12.9964C13.99 12.7342 13.8892 12.4816 13.707 12.293L11 9.586V5C11 4.73478 10.8946 4.48043 10.7071 4.29289C10.5196 4.10536 10.2652 4 10 4Z" fill="#93151F"/>
</g>
</g>
</g>
</g>
</g>
</g>
</g>
</g>
</g>
</g>
<defs>
<clipPath id="clip0_332_390">
<rect width="1280" height="2741" fill="white" transform="translate(-695 -1405)"/>
</clipPath>
</defs>
</svg>
