<svg width="21" height="23" viewBox="0 0 21 23" fill="none" xmlns="http://www.w3.org/2000/svg">
<path d="M2.87012 22.3867C0.999674 22.3867 0.0644531 21.7689 0.0644531 20.5332C0.0644531 19.7461 0.301432 18.9124 0.775391 18.0322C1.24935 17.1436 1.93913 16.3099 2.84473 15.5312C3.75033 14.7441 4.84635 14.1051 6.13281 13.6143C7.41927 13.1149 8.875 12.8652 10.5 12.8652C12.1081 12.8652 13.5553 13.1149 14.8418 13.6143C16.1283 14.1051 17.2243 14.7441 18.1299 15.5312C19.0355 16.3099 19.7253 17.1436 20.1992 18.0322C20.6816 18.9124 20.9229 19.7461 20.9229 20.5332C20.9229 21.7689 19.9876 22.3867 18.1172 22.3867H2.87012ZM2.375 20.7363H18.6123C18.8154 20.7363 18.9593 20.7025 19.0439 20.6348C19.1286 20.5755 19.1709 20.474 19.1709 20.3301C19.1709 19.8053 18.9762 19.2129 18.5869 18.5527C18.2061 17.8926 17.6475 17.2536 16.9111 16.6357C16.1748 16.0179 15.265 15.5101 14.1816 15.1123C13.1068 14.7145 11.8796 14.5156 10.5 14.5156C9.10352 14.5156 7.86784 14.7145 6.79297 15.1123C5.7181 15.5101 4.80827 16.0179 4.06348 16.6357C3.32715 17.2536 2.76855 17.8926 2.3877 18.5527C2.0153 19.2129 1.8291 19.8053 1.8291 20.3301C1.8291 20.474 1.86719 20.5755 1.94336 20.6348C2.02799 20.7025 2.17188 20.7363 2.375 20.7363ZM10.5 11.3164C9.56055 11.3164 8.7015 11.0667 7.92285 10.5674C7.14421 10.068 6.52637 9.39941 6.06934 8.56152C5.6123 7.71517 5.38379 6.77572 5.38379 5.74316C5.38379 4.74447 5.6123 3.8304 6.06934 3.00098C6.53483 2.17155 7.15267 1.51139 7.92285 1.02051C8.7015 0.529622 9.56055 0.28418 10.5 0.28418C11.4479 0.28418 12.3112 0.525391 13.0898 1.00781C13.8685 1.49023 14.4863 2.14616 14.9434 2.97559C15.4004 3.79655 15.6289 4.71484 15.6289 5.73047C15.6289 6.75456 15.3962 7.68978 14.9307 8.53613C14.4736 9.38249 13.8558 10.0596 13.0771 10.5674C12.2985 11.0667 11.4395 11.3164 10.5 11.3164ZM10.5 9.67871C11.1178 9.67871 11.6807 9.50521 12.1885 9.1582C12.6963 8.80273 13.1025 8.32878 13.4072 7.73633C13.7204 7.13542 13.877 6.4668 13.877 5.73047C13.877 5.01107 13.7246 4.36784 13.4199 3.80078C13.1152 3.22526 12.709 2.77246 12.2012 2.44238C11.6934 2.10384 11.1263 1.93457 10.5 1.93457C9.88216 1.93457 9.3151 2.10384 8.79883 2.44238C8.29102 2.78092 7.88477 3.23796 7.58008 3.81348C7.28385 4.389 7.13574 5.03223 7.13574 5.74316C7.13574 6.47949 7.28809 7.14388 7.59277 7.73633C7.89746 8.32878 8.30371 8.80273 8.81152 9.1582C9.3278 9.50521 9.89062 9.67871 10.5 9.67871Z" fill="#FAF5EE"/>
</svg>
