<svg width="24" height="24" viewBox="0 0 24 24" fill="none" xmlns="http://www.w3.org/2000/svg">
<g id="tabler:video-filled">
<g id="Group">
<path id="Vector" d="M20.117 7.62379C19.9233 7.60142 19.7272 7.63618 19.553 7.72379L15 9.99879V13.9988L19.553 16.2738C19.7053 16.3499 19.8744 16.3858 20.0445 16.3783C20.2145 16.3707 20.3799 16.3198 20.5248 16.2305C20.6697 16.1412 20.7894 16.0164 20.8725 15.8678C20.9557 15.7193 20.9996 15.552 21 15.3818V8.61579C20.9997 8.37103 20.9097 8.13487 20.747 7.95205C20.5842 7.76922 20.3601 7.65243 20.117 7.62379Z" fill="white"/>
<path id="Vector_2" d="M5 5C3.355 5 2 6.355 2 8V16C2 17.645 3.355 19 5 19H13C14.645 19 16 17.645 16 16V8C16 6.355 14.645 5 13 5H5Z" fill="white"/>
</g>
</g>
</svg>
