<svg width="15" height="10" viewBox="0 0 15 10" fill="none" xmlns="http://www.w3.org/2000/svg">
<g id="Group">
<path id="Vector" fill-rule="evenodd" clip-rule="evenodd" d="M8.21713 8.8885C7.93588 9.1694 7.55463 9.32718 7.15713 9.32718C6.75963 9.32718 6.37838 9.1694 6.09713 8.8885L0.439127 3.2325C0.157865 2.95111 -9.37265e-05 2.56951 4.17235e-08 2.17165C9.38099e-05 1.77379 0.158232 1.39226 0.439627 1.111C0.721021 0.82974 1.10262 0.671781 1.50048 0.671875C1.89834 0.671969 2.27986 0.830108 2.56113 1.1115L7.15713 5.7075L11.7531 1.1115C12.0359 0.838129 12.4147 0.686756 12.808 0.689987C13.2013 0.693218 13.5776 0.850794 13.8559 1.12878C14.1341 1.40676 14.292 1.7829 14.2956 2.1762C14.2993 2.56949 14.1482 2.94847 13.8751 3.2315L8.21813 8.8895L8.21713 8.8885Z" fill="#93151F"/>
</g>
</svg>
