<svg width="1280" height="389" viewBox="0 0 1280 389" fill="none" xmlns="http://www.w3.org/2000/svg">
<path d="M1280 137.278C1262.71 124.748 1235.71 107.335 1200.11 93.2069C1068.08 40.669 1000.61 105.438 842.944 103.531C792.592 102.922 743.848 95.663 697.021 85.9882C729.87 87.8053 779.503 87.5457 837.392 75.0552C968.437 46.7095 1011.03 -16.1123 1096.14 3.84651C1144.28 15.1189 1186.71 48.5267 1210.06 66.9279C1242.02 92.0786 1264.86 117.828 1279.99 137.268L1280 137.278Z" fill="#E2DDD9"/>
<path d="M1280 137.277V388.395H0V137.277C73.5351 130.059 132.872 118.956 179.28 104.399C212.039 94.1148 234.843 86.2071 252.985 79.5076C271.086 72.7681 284.555 67.2368 298.544 61.6655C347.876 36.5148 408.572 33.8789 432.045 33.8789C438.365 33.8789 441.959 34.0486 441.959 34.0486C517.781 38.0624 603.607 66.7575 697.021 85.9875C743.858 95.6624 792.592 102.921 842.943 103.53C1000.61 105.427 1068.08 40.6683 1200.1 93.2062C1235.71 107.334 1262.71 124.747 1280 137.277Z" fill="#AFA6A0"/>
</svg>
